<svg width="25" height="30" viewBox="0 0 25 30" fill="none" xmlns="http://www.w3.org/2000/svg">
<g id="Apple">
<path id="&#60;Path&#62;" d="M20.645 15.9157C20.6596 14.8118 20.9599 13.7295 21.5181 12.7693C22.0762 11.8092 22.8741 11.0026 23.8374 10.4244C23.2254 9.57111 22.4181 8.86891 21.4796 8.37354C20.541 7.87818 19.4971 7.60329 18.4307 7.57072C16.1559 7.33759 13.9505 8.89966 12.7913 8.89966C11.6097 8.89966 9.82492 7.59386 7.903 7.63246C6.65986 7.67167 5.44832 8.0246 4.38643 8.65686C3.32454 9.28912 2.44851 10.1792 1.84369 11.2402C-0.776169 15.6687 1.17802 22.1771 3.68767 25.7567C4.94331 27.5096 6.41078 29.4676 8.33096 29.3981C10.21 29.3221 10.9117 28.2284 13.1798 28.2284C15.4269 28.2284 16.0853 29.3981 18.0445 29.354C20.0607 29.3221 21.331 27.5934 22.5427 25.8239C23.4448 24.5749 24.1391 23.1946 24.5996 21.7339C23.4282 21.2502 22.4286 20.4405 21.7253 19.4059C21.0221 18.3713 20.6464 17.1574 20.645 15.9157Z" fill="black"/>
<path id="&#60;Path&#62;_2" d="M16.9449 5.21653C18.0442 3.92809 18.5858 2.272 18.4547 0.599976C16.7751 0.772199 15.2237 1.55589 14.1095 2.7949C13.5647 3.40019 13.1475 4.10437 12.8816 4.86718C12.6158 5.62999 12.5065 6.43648 12.5601 7.24054C13.4002 7.24898 14.2313 7.07121 14.9908 6.72062C15.7503 6.37003 16.4184 5.85576 16.9449 5.21653Z" fill="black"/>
</g>
</svg>
