<svg width="26" height="30" viewBox="0 0 26 30" fill="none" xmlns="http://www.w3.org/2000/svg">
<g id="Playstore">
<path id="path94" d="M12.3663 14.354L0.708008 27.0071C0.709103 27.0094 0.709103 27.0127 0.710198 27.015C1.06826 28.3889 2.29464 29.4 3.75096 29.4C4.33349 29.4 4.87989 29.2388 5.34854 28.9566L5.38577 28.9342L18.508 21.1912L12.3663 14.354Z" fill="#EA4335"/>
<path id="path98" d="M24.1596 12.1994L24.1487 12.1916L18.4832 8.83345L12.1006 14.6416L18.5062 21.1898L24.141 17.8653C25.1287 17.3189 25.7999 16.254 25.7999 15.0268C25.7999 13.8062 25.1385 12.747 24.1596 12.1994Z" fill="#FBBC04"/>
<path id="path102" d="M0.706917 2.99207C0.636839 3.25633 0.599609 3.53402 0.599609 3.82068V26.1797C0.599609 26.4664 0.636839 26.7441 0.708012 27.0072L12.7659 14.6777L0.706917 2.99207Z" fill="#4285F4"/>
<path id="path106" d="M12.4518 14.9999L18.4851 8.83121L5.37822 1.0602C4.9019 0.767943 4.34565 0.599982 3.75108 0.599982C2.29475 0.599982 1.06618 1.61335 0.708126 2.98839C0.708126 2.98951 0.707031 2.99063 0.707031 2.99175L12.4518 14.9999Z" fill="#34A853"/>
</g>
</svg>
