<svg width="373" height="374" viewBox="0 0 373 374" fill="none" xmlns="http://www.w3.org/2000/svg">
<path d="M148.324 16.3869C148.268 16.3869 148.208 16.3779 148.151 16.3575C147.889 16.2622 147.755 15.9742 147.848 15.7134L149.188 12.051C149.283 11.7902 149.575 11.6564 149.834 11.7516C150.096 11.8469 150.231 12.1349 150.137 12.3957L148.798 16.0581C148.723 16.2622 148.529 16.3892 148.324 16.3892V16.3869Z" fill="#211A12"/>
<path d="M145.204 24.9206C145.147 24.9206 145.088 24.9115 145.031 24.8911C144.769 24.7958 144.635 24.5078 144.728 24.247L146.067 20.5846C146.163 20.3238 146.452 20.1878 146.714 20.2853C146.976 20.3805 147.111 20.6685 147.017 20.9293L145.678 24.5917C145.603 24.7958 145.409 24.9228 145.204 24.9228V24.9206Z" fill="#211A12"/>
<path d="M144.988 17.9358C144.931 17.9358 144.872 17.9267 144.815 17.9063L141.137 16.5728C140.875 16.4776 140.741 16.1896 140.836 15.9288C140.932 15.668 141.221 15.5342 141.483 15.6294L145.161 16.9629C145.423 17.0581 145.558 17.3461 145.462 17.6069C145.387 17.811 145.193 17.938 144.988 17.938V17.9358Z" fill="#211A12"/>
<path d="M153.558 21.0404C153.501 21.0404 153.442 21.0313 153.385 21.0109L149.707 19.6774C149.445 19.5822 149.311 19.2942 149.404 19.0334C149.5 18.7726 149.789 18.6388 150.051 18.7341L153.729 20.0675C153.991 20.1628 154.125 20.4508 154.032 20.7115C153.957 20.9156 153.763 21.0426 153.558 21.0426V21.0404Z" fill="#211A12"/>
<path d="M50.5924 70.8314C49.8864 70.8314 49.1804 70.6998 48.504 70.439C47.0283 69.8676 45.8668 68.745 45.2314 67.28C43.9333 64.2866 45.2792 60.7761 48.2307 59.4563C49.6495 58.8213 51.2323 58.7805 52.6808 59.3406C54.1565 59.9121 55.318 61.0346 55.9534 62.4996C57.2515 65.4931 55.9056 69.0035 52.954 70.3234C52.198 70.6613 51.3963 70.8314 50.5924 70.8314ZM48.6407 60.3725C46.1902 61.4678 45.0765 64.3887 46.156 66.8809C46.6844 68.0987 47.6454 69.0285 48.8684 69.5025C50.064 69.9651 51.3667 69.9311 52.5396 69.4072C54.99 68.3119 56.1037 65.391 55.0242 62.8987C54.4958 61.6809 53.5348 60.7512 52.3118 60.2772C51.1162 59.8146 49.8135 59.8486 48.6407 60.3725Z" fill="#211A12"/>
<path d="M115.698 31.6308C114.992 31.6308 114.286 31.4993 113.61 31.2385C112.134 30.667 110.973 29.5445 110.337 28.0795C109.042 25.086 110.385 21.5756 113.337 20.2557C114.756 19.6207 116.338 19.5799 117.787 20.1401C119.262 20.7115 120.424 21.8341 121.059 23.299C122.355 26.2925 121.012 29.803 118.06 31.1228C117.304 31.4607 116.502 31.6308 115.698 31.6308ZM115.696 20.7524C115.033 20.7524 114.373 20.893 113.749 21.1719C111.298 22.2672 110.185 25.1881 111.264 27.6804C111.79 28.8981 112.754 29.8279 113.977 30.3019C115.172 30.7645 116.475 30.7305 117.648 30.2066C120.098 29.1113 121.212 26.1904 120.132 23.6982C119.606 22.4804 118.643 21.5506 117.42 21.0766C116.86 20.8612 116.279 20.7524 115.696 20.7524Z" fill="#211A12"/>
<path d="M83.2227 48.156C83.0974 48.156 82.9722 48.1106 82.8742 48.0176C82.6738 47.8249 82.667 47.5074 82.8583 47.3078L84.7144 45.378C84.9079 45.1784 85.2268 45.1716 85.4272 45.3621C85.6276 45.5548 85.6344 45.8723 85.4431 46.0719L83.5871 48.0018C83.4891 48.1038 83.3548 48.156 83.2227 48.156Z" fill="#211A12"/>
<path d="M76.7251 54.9117C76.5999 54.9117 76.4746 54.8663 76.3767 54.7711C76.1763 54.5783 76.1694 54.2608 76.3607 54.0613L78.2168 52.1314C78.4104 51.9318 78.7292 51.9228 78.9296 52.1155C79.13 52.3083 79.1369 52.6258 78.9456 52.8253L77.0895 54.7552C76.9893 54.8572 76.8572 54.9094 76.7251 54.9094V54.9117Z" fill="#211A12"/>
<path d="M78.5474 48.258C78.4199 48.258 78.2923 48.2104 78.1944 48.1129L76.3087 46.2646C76.1106 46.0696 76.1083 45.7521 76.3042 45.5548C76.5 45.3575 76.8189 45.3553 77.017 45.548L78.9027 47.3963C79.1008 47.5913 79.1031 47.9088 78.9072 48.1061C78.8093 48.2059 78.6772 48.2557 78.5474 48.2557V48.258Z" fill="#211A12"/>
<path d="M85.1451 54.7257C85.0175 54.7257 84.89 54.678 84.7921 54.5805L82.9064 52.7323C82.7083 52.5373 82.706 52.2198 82.9018 52.0225C83.0977 51.8252 83.4165 51.8229 83.6147 52.0157L85.5003 53.8639C85.6985 54.0589 85.7007 54.3764 85.5049 54.5737C85.407 54.6735 85.2749 54.7234 85.1451 54.7234V54.7257Z" fill="#211A12"/>
<path d="M356.1 387.803L346.649 388.488L171.365 387.803C163.403 387.803 157.764 381.408 158.769 373.52L204.257 16.3188C205.262 8.43153 212.529 2.03645 220.491 2.03645L395.953 0C416.094 0 418.827 8.43153 417.822 16.3188L372.334 373.52C371.329 381.408 364.062 387.803 356.1 387.803Z" fill="#211A12"/>
<path d="M344.984 388.49H160.249C152.287 388.49 146.648 382.063 147.652 374.137L193.141 15.1645C194.145 7.23645 201.413 0.81189 209.374 0.81189H394.11C402.072 0.81189 407.71 7.23872 406.706 15.1645L361.217 374.135C360.213 382.063 352.946 388.488 344.984 388.488V388.49Z" fill="white"/>
<path d="M346.817 378.446H161.087C160.055 378.446 159.133 378.045 158.486 377.314C157.835 376.577 157.548 375.602 157.677 374.568L201.112 31.8099C201.374 29.7394 203.28 28.0568 205.359 28.0568H391.09C392.119 28.0568 393.044 28.4582 393.691 29.1884C394.342 29.9254 394.629 30.9005 394.499 31.9369L351.067 374.695C350.805 376.766 348.899 378.448 346.82 378.448L346.817 378.446ZM158.181 374.629L158.682 374.693C158.588 375.437 158.787 376.133 159.247 376.65C159.698 377.16 160.353 377.441 161.089 377.441H346.82C348.409 377.441 349.865 376.153 350.067 374.568L393.499 31.8099C393.593 31.0661 393.392 30.3699 392.935 29.8528C392.484 29.3426 391.828 29.0614 391.092 29.0614H205.362C203.772 29.0614 202.317 30.3495 202.114 31.9346L158.68 374.693L158.179 374.629H158.181Z" fill="#211A12"/>
<path d="M299.43 19.5708C297.849 19.5708 296.433 18.9562 295.447 17.8405C294.449 16.7134 294.01 15.2167 294.21 13.627C294.618 10.4204 297.569 7.81018 300.792 7.81018C302.372 7.81018 303.786 8.42474 304.775 9.54048C305.772 10.6676 306.212 12.1643 306.009 13.7517C305.602 16.9583 302.65 19.5685 299.428 19.5685L299.43 19.5708ZM300.792 8.81707C298.059 8.81707 295.556 11.0327 295.212 13.754C295.048 15.0534 295.399 16.2689 296.203 17.176C296.995 18.0718 298.143 18.5662 299.43 18.5662C302.16 18.5662 304.666 16.3506 305.009 13.6293C305.173 12.3298 304.823 11.1143 304.019 10.2072C303.226 9.31144 302.078 8.81707 300.792 8.81707Z" fill="#211A12"/>
<path d="M378.332 239.584C378.312 239.584 378.289 239.584 378.268 239.58C377.993 239.546 377.795 239.294 377.831 239.017L406.205 15.0987C406.674 11.3886 405.663 7.9099 403.356 5.30424C401.077 2.72807 397.792 1.31072 394.11 1.31072H209.374C201.672 1.31072 194.615 7.55159 193.642 15.2234L189.215 50.1583C189.181 50.4349 188.928 50.63 188.65 50.5937C188.372 50.5597 188.179 50.3079 188.213 50.0313L192.64 15.0964C193.674 6.9393 201.18 0.303833 209.374 0.303833H394.11C398.086 0.303833 401.637 1.84364 404.112 4.63752C406.613 7.46315 407.713 11.2231 407.205 15.2234L378.831 239.142C378.799 239.396 378.583 239.582 378.33 239.582L378.332 239.584Z" fill="#211A12"/>
<path d="M160.251 388.991C156.273 388.991 152.72 387.451 150.244 384.657C147.741 381.832 146.644 378.074 147.152 374.074L163.401 245.839C163.435 245.564 163.685 245.367 163.966 245.403C164.243 245.437 164.439 245.689 164.403 245.966L148.154 374.201C147.684 377.911 148.696 381.39 151.003 383.995C153.282 386.571 156.566 387.989 160.249 387.989L247.876 387.472H247.878C248.156 387.472 248.382 387.694 248.384 387.971C248.384 388.247 248.161 388.474 247.883 388.476L160.253 388.993L160.251 388.991Z" fill="#211A12"/>
<path d="M186.892 307.193C186.742 307.193 186.591 307.125 186.491 306.998C186.32 306.778 186.364 306.463 186.582 306.293L225.444 276.512C225.665 276.342 225.981 276.385 226.152 276.603C226.32 276.823 226.279 277.138 226.061 277.308L187.199 307.089C187.108 307.159 186.999 307.193 186.892 307.193Z" fill="#211A12"/>
<path d="M231.973 272.648C231.823 272.648 231.672 272.58 231.572 272.453C231.404 272.233 231.445 271.918 231.663 271.748L248.131 259.13C248.352 258.962 248.669 259.003 248.839 259.221C249.008 259.441 248.967 259.756 248.748 259.926L232.28 272.544C232.189 272.614 232.08 272.648 231.973 272.648Z" fill="#211A12"/>
<path d="M178.819 333.324C178.668 333.324 178.518 333.256 178.418 333.129C178.247 332.909 178.29 332.594 178.509 332.424L197.414 317.938C197.634 317.767 197.951 317.808 198.122 318.028C198.293 318.248 198.249 318.563 198.031 318.734L179.126 333.22C179.035 333.29 178.926 333.324 178.819 333.324Z" fill="#211A12"/>
<path d="M206.61 312.026C206.459 312.026 206.309 311.958 206.209 311.831C206.038 311.611 206.081 311.295 206.3 311.125L240.053 285.259C240.274 285.091 240.591 285.132 240.761 285.35C240.93 285.57 240.889 285.885 240.67 286.055L206.917 311.921C206.826 311.991 206.717 312.026 206.61 312.026Z" fill="#211A12"/>
<path d="M217.676 331.315C217.525 331.315 217.375 331.247 217.275 331.12C217.106 330.9 217.147 330.585 217.366 330.415L245.451 308.894C245.674 308.726 245.988 308.767 246.159 308.984C246.327 309.204 246.286 309.52 246.068 309.69L217.983 331.211C217.892 331.281 217.783 331.315 217.676 331.315Z" fill="#211A12"/>
<path d="M353.805 60.6853C364.424 60.7125 372.211 69.203 371.161 79.6097L357.225 217.866C356.176 228.273 346.683 236.718 336.064 236.691L103.346 236.081C92.7264 236.053 84.94 227.563 85.9899 217.156L99.9253 78.8999C100.975 68.4932 110.467 60.048 121.087 60.0753L353.805 60.6853Z" fill="white"/>
<path d="M336.116 237.194H336.062L227.988 236.911C227.71 236.911 227.485 236.684 227.485 236.407C227.485 236.13 227.712 235.906 227.99 235.906L336.064 236.189H336.116C346.463 236.189 355.702 227.957 356.722 217.818L370.655 79.5621C371.145 74.7091 369.685 70.1305 366.547 66.6676C363.359 63.148 358.831 61.2023 353.798 61.1887L121.08 60.5787H121.028C110.682 60.5787 101.442 68.8106 100.422 78.9498L89.8344 183.997C89.807 184.274 89.5633 184.475 89.2809 184.446C89.0031 184.419 88.8004 184.172 88.83 183.895L99.4176 78.8477C100.49 68.2074 110.178 59.5718 121.028 59.5718H121.082L353.8 60.1818C359.12 60.1954 363.912 62.2591 367.296 65.9918C370.628 69.6678 372.177 74.5231 371.66 79.6596L357.727 217.916C356.654 228.556 346.964 237.192 336.114 237.192L336.116 237.194ZM205.278 236.852L106.913 236.593C106.635 236.593 106.409 236.366 106.409 236.09C106.409 235.813 106.635 235.588 106.915 235.588L205.28 235.847C205.558 235.847 205.783 236.074 205.783 236.35C205.783 236.627 205.558 236.852 205.278 236.852Z" fill="#211A12"/>
<path d="M155.721 94.0485H139.718C138.484 94.0485 137.361 93.5632 136.559 92.6811C135.726 91.7672 135.339 90.5448 135.466 89.2431C135.721 86.6466 138.003 84.5353 140.554 84.5353H156.557C157.792 84.5353 158.914 85.0206 159.716 85.9027C160.549 86.8166 160.937 88.039 160.809 89.3407C160.554 91.9372 158.272 94.0485 155.721 94.0485ZM140.554 85.5422C138.509 85.5422 136.676 87.2475 136.471 89.3429C136.37 90.3589 136.669 91.3068 137.306 92.0075C137.914 92.6765 138.771 93.0439 139.718 93.0439H155.721C157.766 93.0439 159.6 91.3386 159.805 89.2431C159.905 88.2272 159.607 87.2793 158.969 86.5785C158.361 85.9095 157.505 85.5422 156.557 85.5422H140.554Z" fill="#211A12"/>
<path d="M202.392 200.833H124.236C123.002 200.833 121.879 200.348 121.077 199.465C120.244 198.551 119.857 197.329 119.984 196.027C120.239 193.431 122.521 191.32 125.072 191.32H203.228C204.462 191.32 205.585 191.805 206.386 192.687C207.22 193.601 207.607 194.823 207.48 196.125C207.224 198.722 204.943 200.833 202.392 200.833ZM125.074 192.326C123.029 192.326 121.196 194.032 120.991 196.127C120.891 197.143 121.189 198.091 121.827 198.792C122.435 199.461 123.291 199.828 124.238 199.828H202.394C204.439 199.828 206.273 198.123 206.477 196.027C206.578 195.011 206.279 194.064 205.642 193.363C205.034 192.694 204.177 192.326 203.23 192.326H125.074Z" fill="#211A12"/>
<path d="M211.914 218.431H121.105C119.87 218.431 118.748 217.945 117.946 217.063C117.113 216.149 116.725 214.927 116.853 213.625C117.108 211.029 119.39 208.917 121.941 208.917H212.75C213.984 208.917 215.107 209.403 215.908 210.285C216.742 211.199 217.129 212.421 217.001 213.723C216.746 216.319 214.464 218.431 211.914 218.431ZM121.941 209.924C119.896 209.924 118.062 211.63 117.857 213.725C117.757 214.741 118.055 215.689 118.693 216.39C119.301 217.059 120.157 217.426 121.105 217.426H211.914C213.959 217.426 215.792 215.721 215.997 213.625C216.097 212.609 215.799 211.661 215.161 210.961C214.553 210.292 213.697 209.924 212.75 209.924H121.941Z" fill="#211A12"/>
<path d="M249.165 94.0485H180.727C179.493 94.0485 178.37 93.5632 177.568 92.6811C176.735 91.7672 176.347 90.5448 176.475 89.2431C176.73 86.6466 179.012 84.5353 181.563 84.5353H250.003C251.237 84.5353 252.36 85.0206 253.162 85.9027C253.995 86.8166 254.382 88.039 254.255 89.3407C254 91.9372 251.718 94.0485 249.167 94.0485H249.165ZM181.563 85.5422C179.518 85.5422 177.684 87.2475 177.479 89.3429C177.379 90.3589 177.677 91.3068 178.315 92.0075C178.923 92.6765 179.78 93.0439 180.727 93.0439H249.165C251.21 93.0439 253.043 91.3386 253.248 89.2431C253.348 88.2272 253.05 87.2793 252.412 86.5785C251.804 85.9095 250.948 85.5422 250.001 85.5422H181.56H181.563Z" fill="#211A12"/>
<path d="M363.393 154.997L92.1936 156.16C90.9296 156.165 89.9435 155.074 90.0824 153.822L92.5215 131.875C92.608 131.102 93.2639 130.519 94.0451 130.523L366.053 131.972C366.995 131.977 367.722 132.8 367.606 133.732L365.148 153.448C365.039 154.33 364.288 154.995 363.395 154.999L363.393 154.997Z" fill="#211A12"/>
<path d="M297.159 237.72H274C273.151 237.72 272.531 236.926 272.616 235.945L287.856 60.6558C287.94 59.6761 288.699 58.8801 289.548 58.8801H312.707C313.556 58.8801 314.176 59.6738 314.092 60.6558L298.851 235.945C298.767 236.924 298.009 237.72 297.159 237.72Z" fill="#211A12"/>
<path d="M307.544 149.801C316.128 169.93 321.315 185.652 322.502 191.832C322.796 193.367 321.821 195.009 320.279 195.499C317.947 196.24 315.638 196.601 313.347 196.621L301.769 151.384L307.544 149.801Z" fill="#211A12"/>
<path d="M313.345 197.123C313.115 197.123 312.912 196.966 312.855 196.744L301.277 151.507C301.208 151.241 301.366 150.971 301.632 150.899L307.41 149.316C307.656 149.25 307.908 149.373 308.009 149.604C316.631 169.823 321.823 185.616 322.996 191.737C323.342 193.546 322.215 195.408 320.43 195.975C318.104 196.714 315.722 197.1 313.347 197.123H313.342H313.345ZM302.379 151.738L313.736 196.111C315.877 196.055 318.025 195.687 320.124 195.02C321.411 194.612 322.254 193.224 322.006 191.927C320.849 185.9 315.743 170.359 307.253 150.405L302.379 151.74V151.738Z" fill="#211A12"/>
<path d="M305.374 150.196C310.257 180.777 315.221 196.356 319.239 195.828C302.564 199.35 280.696 198.486 257.041 195.751C254.839 195.497 253.386 193.508 253.736 191.224C255.697 178.423 262.019 165.374 271.067 152.173L305.376 150.196H305.374Z" fill="white"/>
<path d="M293.153 198.665C282.83 198.665 270.899 197.86 256.981 196.252C255.811 196.116 254.782 195.54 254.08 194.624C253.34 193.658 253.039 192.424 253.235 191.149C255.075 179.146 260.769 166.304 270.648 151.89C270.737 151.761 270.88 151.681 271.035 151.672L305.344 149.695C305.602 149.683 305.832 149.863 305.873 150.117C312.687 192.789 317.788 195.517 319.173 195.329C319.448 195.29 319.69 195.476 319.735 195.742C319.781 196.007 319.608 196.263 319.343 196.318C311.942 197.88 303.331 198.662 293.156 198.662L293.153 198.665ZM271.34 152.661C261.636 166.864 256.039 179.507 254.233 191.301C254.08 192.304 254.31 193.267 254.882 194.014C255.415 194.71 256.2 195.15 257.095 195.252C283.584 198.313 302.839 198.454 317.442 195.676C312.479 191.61 307.991 169.705 304.946 150.724L271.34 152.661Z" fill="#211A12"/>
<path d="M294.902 166.526H294.898C294.62 166.524 294.394 166.297 294.399 166.018L294.531 152.829C294.533 152.552 294.759 152.332 295.037 152.332H295.041C295.319 152.334 295.545 152.561 295.54 152.84L295.408 166.029C295.406 166.306 295.18 166.526 294.902 166.526Z" fill="#211A12"/>
<path d="M277.678 165.603C277.626 165.603 277.573 165.596 277.521 165.578C277.257 165.492 277.113 165.209 277.2 164.943L281.247 152.677C281.333 152.414 281.618 152.271 281.885 152.357C282.149 152.443 282.292 152.727 282.206 152.992L278.159 165.258C278.088 165.469 277.892 165.603 277.678 165.603Z" fill="#211A12"/>
<path d="M308.425 135.755C319.929 115.218 327.428 99.2371 329.544 92.9894C330.07 91.4382 329.368 89.8304 327.936 89.4018C325.77 88.7532 323.568 88.4834 321.334 88.5559L303.023 134.401L308.425 135.755Z" fill="#211A12"/>
<path d="M308.425 136.258C308.384 136.258 308.343 136.254 308.302 136.242L302.9 134.889C302.759 134.852 302.641 134.759 302.575 134.63C302.509 134.501 302.502 134.351 302.554 134.215L320.865 88.37C320.94 88.1841 321.117 88.0593 321.318 88.0525C323.643 87.9754 325.916 88.2702 328.082 88.9188C328.847 89.1479 329.478 89.674 329.851 90.3974C330.275 91.2138 330.336 92.2161 330.02 93.1482C327.927 99.3301 320.416 115.375 308.865 135.998C308.774 136.159 308.605 136.256 308.425 136.256V136.258ZM303.704 134.054L308.173 135.174C319.585 114.771 326.998 98.9355 329.063 92.8307C329.291 92.1549 329.252 91.436 328.954 90.86C328.706 90.3815 328.291 90.0323 327.79 89.8826C325.829 89.2953 323.775 89.0073 321.678 89.0503L303.704 134.054Z" fill="#211A12"/>
<path d="M306.364 135.446C315.863 104.573 323.124 88.7464 326.97 89.1115C311.213 86.2519 289.705 87.9981 266.157 91.6945C263.964 92.0392 262.238 94.0915 262.226 96.3684C262.165 109.131 266.328 121.967 273.13 134.843L306.362 135.446H306.364Z" fill="white"/>
<path d="M306.364 135.95H306.355L273.123 135.347C272.939 135.342 272.773 135.24 272.686 135.079C265.251 121.005 261.666 108.344 261.723 96.3662C261.734 93.8512 263.65 91.5812 266.079 91.1979C293.59 86.8778 312.967 86.0592 327.064 88.6172C327.33 88.6648 327.51 88.9143 327.474 89.1796C327.437 89.4472 327.203 89.6445 326.925 89.6105C325.602 89.4744 320.136 92.4089 306.849 135.592C306.783 135.802 306.588 135.948 306.367 135.948L306.364 135.95ZM273.44 134.347L305.993 134.936C311.908 115.755 319.696 93.5292 325.148 89.3134C311.318 87.1409 292.516 88.0639 266.237 92.1912C264.283 92.4974 262.743 94.3342 262.732 96.3707C262.675 108.104 266.177 120.529 273.44 134.347Z" fill="#211A12"/>
<path d="M296.665 133.721C296.642 133.721 296.617 133.721 296.592 133.716C296.316 133.675 296.125 133.421 296.164 133.147L298.072 119.921C298.113 119.647 298.364 119.457 298.644 119.495C298.919 119.536 299.111 119.79 299.072 120.064L297.163 133.29C297.127 133.539 296.911 133.721 296.665 133.721Z" fill="#211A12"/>
<path d="M283.654 134.256C283.413 134.256 283.199 134.084 283.158 133.836L281.097 121.695C281.051 121.42 281.236 121.162 281.511 121.114C281.789 121.067 282.046 121.253 282.094 121.527L284.155 133.669C284.201 133.943 284.016 134.201 283.741 134.249C283.711 134.254 283.684 134.256 283.657 134.256H283.654Z" fill="#211A12"/>
<path d="M275.69 133.975H306.458C308.346 133.975 309.721 135.537 309.532 137.463L308.391 149.083C308.202 151.01 306.519 152.57 304.631 152.57H273.864C271.976 152.57 270.6 151.008 270.789 149.083L271.93 137.463C272.119 135.535 273.802 133.975 275.69 133.975Z" fill="white"/>
<path d="M304.629 153.074H273.861C272.823 153.074 271.88 152.666 271.204 151.924C270.502 151.155 270.177 150.128 270.284 149.035L271.425 137.415C271.639 135.242 273.552 133.474 275.688 133.474H306.456C307.494 133.474 308.437 133.882 309.113 134.623C309.812 135.392 310.14 136.419 310.033 137.512L308.892 149.132C308.678 151.305 306.765 153.074 304.629 153.074ZM275.688 134.478C274.057 134.478 272.595 135.841 272.429 137.512L271.288 149.132C271.208 149.94 271.443 150.693 271.951 151.248C272.433 151.777 273.11 152.069 273.861 152.069H304.629C306.262 152.069 307.724 150.708 307.888 149.035L309.029 137.415C309.109 136.608 308.872 135.855 308.366 135.299C307.883 134.771 307.205 134.478 306.456 134.478H275.688Z" fill="#211A12"/>
<path d="M28.1095 377.729L21.423 399.634L11.6484 396.831L18.7585 373.808L28.1095 377.729Z" fill="white"/>
<path d="M21.423 400.137C21.3775 400.137 21.3296 400.13 21.2841 400.117L11.5095 397.312C11.3797 397.275 11.2704 397.187 11.2043 397.067C11.1406 396.949 11.1269 396.808 11.1656 396.679L18.2734 373.657C18.3144 373.52 18.4123 373.409 18.5421 373.348C18.6719 373.289 18.8199 373.287 18.952 373.341L28.3053 377.262C28.5444 377.362 28.6674 377.625 28.5923 377.872L21.9058 399.777C21.8398 399.992 21.6394 400.133 21.423 400.133V400.137ZM12.2815 396.488L21.086 399.015L27.4968 378.017L19.0773 374.487L12.2838 396.488H12.2815Z" fill="#211A12"/>
<path d="M37.1327 250.22C37.1327 250.22 32.086 262.765 31.1068 275.626C30.1275 288.486 16.7182 366.109 12.7031 385.669C12.7031 385.669 21.7011 390.683 26.8298 389.86C26.8298 389.86 55.7983 332.408 60.517 289.611C65.2358 246.814 63.858 250.231 63.858 250.231L37.1305 250.22H37.1327Z" fill="#211A12"/>
<path d="M46.0212 255.039C46.0212 255.039 44.3952 278.225 52.4708 294.614C60.5465 311.003 70.2459 374.716 69.5695 390.919C69.5695 390.919 79.7973 393.613 84.6481 391.724C84.6481 391.724 99.3396 299.886 80.6285 254.731L46.019 255.044L46.0212 255.039Z" fill="#211A12"/>
<path d="M57.3945 312.463C57.1554 312.463 56.9436 312.293 56.898 312.053C56.8866 311.987 55.6204 305.309 52.5733 299.948C47.982 291.868 46.2558 281.828 46.2398 281.728C46.1943 281.454 46.3787 281.195 46.6543 281.15C46.9299 281.107 47.1895 281.288 47.235 281.563C47.251 281.66 48.9499 291.53 53.4523 299.453C56.5837 304.964 57.8386 311.59 57.891 311.869C57.9411 312.141 57.7612 312.404 57.4856 312.454C57.4537 312.459 57.4241 312.463 57.3922 312.463H57.3945Z" fill="white"/>
<path d="M46.8347 198.526L42.0294 193.218C39.957 187.95 34.1838 183.387 29.3375 180.437C9.23263 168.2 12.0566 144.969 11.9382 135.562L4.28613 136.744C4.28613 136.744 -14.5479 185.53 31.8244 208.847L46.8347 198.526Z" fill="white"/>
<path d="M31.8243 209.351C31.7468 209.351 31.6694 209.332 31.5965 209.296C7.43108 197.143 1.16369 178.003 0.161633 164.086C-0.922407 149.037 3.76675 136.685 3.81457 136.562C3.88062 136.394 4.02865 136.274 4.20856 136.245L11.8606 135.063C12.0064 135.041 12.1521 135.081 12.2637 135.177C12.3753 135.272 12.4413 135.408 12.4413 135.553C12.455 136.558 12.4345 137.689 12.4095 138.998C12.2227 149.559 11.872 169.216 29.597 180.006C33.3957 182.319 40.1003 187.065 42.462 192.946L47.2058 198.186C47.3037 198.293 47.3493 198.438 47.3333 198.581C47.3174 198.724 47.2377 198.853 47.1192 198.937L32.1089 209.258C32.0224 209.317 31.9222 209.346 31.822 209.346L31.8243 209.351ZM4.65721 137.195C3.98538 139.073 0.182129 150.443 1.17052 164.052C2.15663 177.647 8.27827 196.327 31.7833 208.267L46.0739 198.44L41.6535 193.558C41.6125 193.512 41.5806 193.46 41.5578 193.404C39.3351 187.757 32.7808 183.126 29.0709 180.867C10.8517 169.778 11.2093 149.745 11.4006 138.984C11.4188 137.93 11.4347 136.993 11.4347 136.15L4.65493 137.195H4.65721Z" fill="#211A12"/>
<path d="M6.96653 137.678C6.53382 137.544 6.08973 137.349 5.63653 137.088C3.45251 135.832 0.635369 131.811 1.76951 129.19C3.3933 125.437 12.0565 126.223 13.6757 129.557C15.6389 133.594 11.3505 139.036 6.96653 137.676V137.678Z" fill="white"/>
<path d="M8.35102 138.39C7.83632 138.39 7.31936 138.313 6.81605 138.159C6.34008 138.011 5.85727 137.798 5.38357 137.526C2.93537 136.118 0.0817937 131.82 1.30476 128.995C2.0358 127.307 4.11051 126.264 6.85477 126.203C9.68557 126.155 13.088 127.199 14.1288 129.342C15.1559 131.451 14.6913 134.12 12.9445 136.138C11.6851 137.594 10.0158 138.39 8.35102 138.39ZM7.11667 137.197C9.19593 137.844 11.0976 136.735 12.1816 135.48C13.6642 133.766 14.0741 131.526 13.2224 129.777C12.4777 128.249 9.75845 127.137 6.87754 127.205C4.53866 127.258 2.801 128.074 2.23166 129.389C1.26148 131.63 3.78712 135.444 5.88915 136.653C6.29681 136.889 6.71129 137.07 7.11667 137.197Z" fill="#211A12"/>
<path d="M123.239 182.137C144.202 195.771 132.344 238.654 99.9207 223.676L97.7822 201.948C125.806 213.983 123.881 197.474 116.607 179.688L123.239 182.137Z" fill="white"/>
<path d="M112.693 227.32C108.65 227.32 104.307 226.257 99.7091 224.132C99.5474 224.057 99.4358 223.903 99.4198 223.726L97.2814 201.998C97.2632 201.821 97.3429 201.649 97.4863 201.543C97.6298 201.438 97.8188 201.416 97.9828 201.488C108.564 206.033 115.528 206.777 118.682 203.699C122.096 200.368 121.242 192.354 116.14 179.879C116.065 179.695 116.106 179.482 116.245 179.339C116.384 179.196 116.596 179.148 116.783 179.219L123.414 181.668C123.449 181.682 123.483 181.697 123.515 181.718C135.209 189.322 136.721 205.815 130.798 216.449C128.038 221.401 123.947 224.839 118.969 226.388C116.969 227.009 114.874 227.32 112.69 227.32H112.693ZM100.397 223.34C113.102 229.105 124.125 226.356 129.916 215.961C135.612 205.738 134.191 189.902 123.011 182.591L117.502 180.557C122.458 193.011 123.075 200.824 119.39 204.418C115.949 207.777 109.069 207.228 98.37 202.744L100.397 223.343V223.34Z" fill="#211A12"/>
<path d="M118.637 182.428C118.163 182.28 117.676 182.067 117.179 181.784C114.785 180.407 111.7 176.001 112.941 173.132C114.719 169.021 124.209 169.882 125.986 173.533C128.138 177.956 123.44 183.92 118.634 182.428H118.637Z" fill="white"/>
<path d="M120.153 183.16C119.593 183.16 119.033 183.076 118.486 182.908C117.967 182.747 117.443 182.516 116.928 182.219C114.262 180.684 111.151 176.005 112.481 172.933C113.273 171.1 115.53 169.969 118.518 169.903C121.588 169.819 125.309 170.985 126.443 173.313C127.559 175.608 127.054 178.511 125.152 180.709C123.781 182.294 121.966 183.16 120.155 183.16H120.153ZM118.796 170.905C118.709 170.905 118.623 170.905 118.539 170.907C115.956 170.964 114.038 171.869 113.405 173.329C112.335 175.806 115.116 180.015 117.432 181.348C117.883 181.607 118.338 181.809 118.787 181.949C121.087 182.666 123.189 181.439 124.387 180.053C126.024 178.16 126.475 175.686 125.535 173.751C124.733 172.107 121.866 170.903 118.798 170.903L118.796 170.905Z" fill="#211A12"/>
<path d="M102.722 202.479C102.695 201.901 102.422 201.363 101.968 200.998C100.34 199.681 94.4461 196.749 89.3766 193.859C83.7788 190.669 78.8186 188.669 72.369 188.748L50.5402 187.569C44.4527 187.541 40.9546 186.405 35.8965 183.423C29.9867 179.938 26.2427 175.014 24.7532 173.391C24.4799 173.094 23.9971 173.159 23.8104 173.518L11.082 197.765C11.082 197.765 20.9227 206.711 33.8993 216.653C34.3115 216.97 34.858 226.86 34.8011 227.375L30.736 264.262C30.3989 266.825 88.0193 270.947 87.853 268.276C87.3156 259.663 84.2843 252.506 85.562 225.399C85.6075 224.427 86.5003 223.719 87.459 223.903C90.2261 224.438 95.7875 225.492 101.408 226.443C102.697 226.66 103.856 225.633 103.793 224.334L102.72 202.479H102.722Z" fill="white"/>
<path d="M80.2144 269.598C65.195 269.598 33.7305 267.017 30.6743 264.983C30.2621 264.709 30.2097 264.403 30.237 264.194L34.3022 227.318C34.3614 226.531 33.8239 218.047 33.5051 216.979C20.7015 207.167 10.8427 198.223 10.7448 198.134C10.5763 197.98 10.5307 197.733 10.6377 197.531L23.3661 173.282C23.5324 172.967 23.8398 172.751 24.1928 172.706C24.5435 172.663 24.892 172.79 25.1288 173.048C25.352 173.291 25.623 173.606 25.9441 173.978C27.7774 176.103 31.189 180.058 36.156 182.986C41.4076 186.083 44.7713 187.036 50.5445 187.061L72.3984 188.24C79.0143 188.136 84.0701 190.249 89.6292 193.417C91.4898 194.476 93.4233 195.524 95.2954 196.535C98.4769 198.254 101.223 199.742 102.289 200.604C102.849 201.057 103.193 201.731 103.228 202.45L104.3 224.304C104.339 225.077 104.027 225.817 103.444 226.329C102.863 226.842 102.091 227.062 101.326 226.932C95.6848 225.978 90.1576 224.928 87.3655 224.388C87.0512 224.329 86.7392 224.402 86.4887 224.599C86.2382 224.796 86.0833 225.093 86.0696 225.413C85.1404 245.106 86.5046 254.329 87.5021 261.064C87.8847 263.645 88.2127 265.872 88.3607 268.233C88.3721 268.403 88.3265 268.723 87.9075 268.963C87.14 269.403 84.2796 269.591 80.2167 269.591L80.2144 269.598ZM31.255 264.167C32.4438 265.022 42.4575 266.532 59.1964 267.72C75.8942 268.906 86.0059 268.82 87.3381 268.138C87.1878 265.879 86.869 263.713 86.4978 261.216C85.4957 254.44 84.1225 245.161 85.0562 225.372C85.0858 224.76 85.3773 224.193 85.8601 223.814C86.3384 223.44 86.9555 223.29 87.5522 223.406C90.3397 223.946 95.8579 224.991 101.49 225.944C101.952 226.021 102.417 225.889 102.767 225.579C103.118 225.268 103.307 224.821 103.284 224.354L102.212 202.5C102.191 202.064 101.984 201.658 101.645 201.384C100.652 200.581 97.944 199.116 94.8057 197.42C92.9291 196.406 90.9888 195.356 89.1191 194.29C83.8059 191.263 78.9687 189.242 72.7286 189.242C72.6102 189.242 72.4895 189.242 72.3688 189.245L50.5058 188.065C44.6188 188.04 41 187.015 35.6322 183.85C30.524 180.836 27.0418 176.801 25.1698 174.633C24.8555 174.271 24.5913 173.962 24.3727 173.724C24.3659 173.717 24.3499 173.699 24.3112 173.701C24.293 173.704 24.2657 173.713 24.2497 173.744L11.7013 197.649C13.4184 199.191 22.6077 207.371 34.1997 216.249C34.9672 216.836 35.3042 227.329 35.2951 227.425L31.2459 264.165L31.255 264.167ZM31.2413 264.301V264.314C31.2413 264.314 31.2413 264.305 31.2413 264.301Z" fill="#211A12"/>
<path d="M56.0375 172.286L54.2657 189.721C54.0152 191.855 55.6435 193.748 57.8002 193.832L63.0246 194.034C65.138 194.116 66.8893 192.424 66.8711 190.317L66.7436 173.667L56.0352 172.284L56.0375 172.286Z" fill="white"/>
<path d="M63.1748 194.542C63.1178 194.542 63.0632 194.542 63.0062 194.538L57.7819 194.336C56.6136 194.29 55.5091 193.757 54.7484 192.873C53.9878 191.989 53.6302 190.818 53.7646 189.662L55.5341 172.234C55.5478 172.098 55.6161 171.976 55.7231 171.892C55.8302 171.808 55.9668 171.769 56.1012 171.787L66.8095 173.171C67.06 173.202 67.2468 173.413 67.249 173.665L67.3766 190.315C67.3857 191.472 66.9325 192.553 66.0989 193.358C65.3064 194.125 64.2725 194.542 63.1748 194.542ZM56.4883 172.853L54.7689 189.775C54.6641 190.676 54.9283 191.542 55.5159 192.224C56.1012 192.907 56.921 193.302 57.8229 193.336L63.0472 193.537C63.9309 193.574 64.7644 193.254 65.3998 192.642C66.0329 192.029 66.3791 191.208 66.3722 190.329L66.2493 174.116L56.4929 172.855L56.4883 172.853Z" fill="#211A12"/>
<path d="M64.4614 150.822C60.2642 151.387 59.6903 156.106 54.6755 156.657C52.3776 156.911 51.2229 156.06 49.187 157.033C47.8387 157.677 45.8756 159.231 45.6752 161.285C45.4179 163.902 48.301 164.469 51.2434 169.508C53.309 173.048 53.4343 175.416 55.0786 175.674C56.7411 175.933 57.4858 173.647 59.3236 173.794C61.7012 173.985 62.011 177.94 64.5207 179.119C66.1034 179.863 69.4148 179.709 74.0948 176.223C74.8532 175.658 75.0992 174.633 74.6778 173.79C74.1381 172.708 73.4481 171.345 72.6783 170.098C69.014 164.152 66.4268 163.149 66.937 161.326C67.7204 158.535 72.8673 159.054 73.2636 156.807C73.6758 154.473 68.7748 150.241 64.4637 150.822H64.4614Z" fill="#211A12"/>
<path d="M58.6904 162.19C58.6904 162.19 62.3775 169.907 63.7918 171.835C65.2083 173.763 71.5372 169.851 71.5372 169.851L71.6921 168.461L72.4482 167.971C72.6827 167.819 72.8353 167.569 72.8649 167.29C72.8923 167.014 72.7943 166.737 72.5962 166.542C71.0704 165.034 67.8319 161.614 66.2582 158.285C66.2582 158.285 61.979 157.201 58.6904 162.193V162.19Z" fill="white"/>
<path d="M65.1331 172.867C64.3952 172.867 63.7712 172.66 63.384 172.132C61.9561 170.189 58.3851 162.723 58.2325 162.408C58.1574 162.249 58.1688 162.063 58.2667 161.916C61.7147 156.686 66.192 157.748 66.3811 157.798C66.5268 157.834 66.6498 157.934 66.7136 158.07C68.2759 161.378 71.5963 164.846 72.9491 166.184C73.2588 166.49 73.4091 166.912 73.3658 167.34C73.3226 167.771 73.088 168.154 72.7236 168.39L72.1656 168.751L72.0358 169.905C72.0199 170.059 71.9311 170.195 71.8013 170.277C70.9472 170.805 67.4628 172.865 65.1308 172.865L65.1331 172.867ZM59.2688 162.233C59.9224 163.587 62.9718 169.867 64.1993 171.54C64.9554 172.567 68.6585 170.998 71.0634 169.551L71.1909 168.406C71.2069 168.256 71.2911 168.123 71.4164 168.041L72.1725 167.551C72.2795 167.481 72.3478 167.37 72.3615 167.243C72.3752 167.116 72.3296 166.991 72.2385 166.9C70.5487 165.231 67.5175 161.984 65.9119 158.732C65.0533 158.605 61.8991 158.437 59.2665 162.236L59.2688 162.233Z" fill="#211A12"/>
<path d="M60.0227 168.463C60.0227 168.463 57.1122 164.914 55.7708 166.574C54.4295 168.234 57.7317 172.06 60.0227 168.463Z" fill="white"/>
<path d="M401.361 296.786L331.554 315.325L261.948 296.7C261.818 296.666 261.818 296.482 261.948 296.446L332.376 277.712L401.361 296.591C401.461 296.618 401.459 296.759 401.361 296.786Z" fill="white"/>
<path d="M331.557 315.829C331.513 315.829 331.468 315.822 331.424 315.81L261.818 297.185C261.543 297.113 261.347 296.861 261.347 296.573C261.347 296.285 261.54 296.036 261.82 295.961L332.247 277.227C332.333 277.204 332.424 277.204 332.511 277.227L401.495 296.106C401.759 296.178 401.942 296.419 401.942 296.691C401.942 296.963 401.755 297.201 401.491 297.271L331.686 315.81C331.643 315.822 331.6 315.829 331.557 315.829ZM263.426 296.575L331.557 314.806L399.792 296.684L332.374 278.236L263.424 296.578L263.426 296.575ZM262.078 296.215H262.08C262.08 296.215 262.08 296.215 262.078 296.215Z" fill="#211A12"/>
<path d="M331.504 414.007L331.57 315.171L402.013 296.625L401.947 395.025L331.504 414.007Z" fill="white"/>
<path d="M360.204 406.768L360.27 307.932L379.653 302.741L379.587 401.142L360.204 406.768Z" fill="#211A12"/>
<path d="M331.505 414.51C331.395 414.51 331.286 414.474 331.197 414.406C331.072 414.31 330.999 414.163 330.999 414.007L331.065 315.171C331.065 314.944 331.22 314.744 331.441 314.686L401.883 296.14C402.038 296.099 402.197 296.133 402.32 296.228C402.445 296.323 402.516 296.471 402.516 296.627L402.45 395.028C402.45 395.255 402.297 395.454 402.077 395.513L331.634 414.494C331.591 414.506 331.546 414.512 331.502 414.512L331.505 414.51ZM332.076 315.559L332.01 413.351L401.443 394.642L401.509 297.278L332.076 315.559Z" fill="#211A12"/>
<path d="M331.504 414.007L331.571 315.171L261.764 296.507L261.698 395.025L331.504 414.007Z" fill="white"/>
<path d="M283.481 302.02L283.415 400.282L302.06 406.067L302.126 307.755L283.481 302.02Z" fill="#211A12"/>
<path d="M330.486 414.195C330.352 414.195 330.215 414.177 330.081 414.14L261.566 395.511C261.347 395.452 261.194 395.252 261.194 395.026L261.26 297.101C261.26 296.802 261.399 296.525 261.638 296.342C261.878 296.158 262.18 296.099 262.472 296.178L331.702 314.688C331.923 314.747 332.076 314.946 332.076 315.173L332.01 412.678C332.01 413.156 331.791 413.596 331.409 413.884C331.138 414.088 330.817 414.197 330.486 414.197V414.195ZM262.203 394.64L330.347 413.17C330.502 413.211 330.669 413.181 330.796 413.084C330.924 412.986 330.999 412.836 330.999 412.675L331.065 315.556L262.269 297.165L262.203 394.642V394.64Z" fill="#211A12"/>
<path d="M283.763 315.228L297.632 310.434C298.937 309.982 300.244 311.107 299.985 312.459L297.883 323.403C297.543 325.165 299.732 326.269 300.96 324.956L323.866 300.453C324.79 299.464 324.321 297.852 323.012 297.507L304.328 292.573C303.731 292.414 303.093 292.573 302.643 292.995L281.946 312.234C280.527 313.552 281.927 315.865 283.761 315.23L283.763 315.228Z" fill="white"/>
<path d="M299.664 326.038C299.309 326.038 298.949 325.954 298.605 325.78C297.667 325.306 297.188 324.335 297.387 323.308L299.489 312.364C299.577 311.908 299.418 311.454 299.065 311.15C298.712 310.846 298.238 310.756 297.796 310.908L283.927 315.702C282.711 316.123 281.682 315.511 281.203 314.72C280.723 313.928 280.661 312.738 281.604 311.862L302.301 292.623C302.884 292.081 303.69 291.881 304.46 292.083L323.144 297.018C323.932 297.226 324.538 297.816 324.763 298.596C324.989 299.376 324.793 300.197 324.237 300.791L301.331 325.294C300.876 325.78 300.281 326.034 299.666 326.034L299.664 326.038ZM298.229 309.828C298.769 309.828 299.297 310.021 299.725 310.388C300.354 310.93 300.636 311.738 300.482 312.552L298.379 323.496C298.245 324.197 298.644 324.673 299.063 324.884C299.482 325.095 300.103 325.136 300.591 324.614L323.497 300.111C323.809 299.777 323.92 299.317 323.793 298.879C323.665 298.442 323.326 298.111 322.884 297.993L304.201 293.058C303.766 292.942 303.315 293.058 302.989 293.36L282.292 312.599C281.727 313.123 281.818 313.79 282.067 314.203C282.315 314.615 282.866 315.003 283.595 314.754L297.464 309.96C297.714 309.874 297.974 309.83 298.227 309.83L298.229 309.828Z" fill="#211A12"/>
<path d="M355.781 260.683L342.035 269.018C341.06 269.609 339.814 268.886 339.851 267.75L340.322 253.066C340.37 251.567 338.364 251.014 337.63 252.325L318.999 285.647C318.593 286.373 318.892 287.291 319.65 287.64L336.218 295.303C336.881 295.609 337.669 295.371 338.049 294.752L357.756 262.654C358.541 261.373 357.07 259.906 355.781 260.686V260.683Z" fill="white"/>
<path d="M336.82 295.938C336.544 295.938 336.266 295.879 336.002 295.757L319.434 288.096C318.947 287.869 318.571 287.45 318.405 286.94C318.238 286.429 318.293 285.869 318.555 285.402L337.186 252.08C337.63 251.286 338.519 250.916 339.4 251.157C340.279 251.399 340.853 252.173 340.823 253.082L340.352 267.766C340.341 268.113 340.514 268.423 340.814 268.598C341.115 268.773 341.472 268.768 341.768 268.589L355.515 260.255C356.296 259.781 357.252 259.897 357.899 260.541C358.544 261.185 358.658 262.139 358.182 262.915L338.475 295.013C338.111 295.605 337.476 295.938 336.817 295.938H336.82ZM338.862 252.089C338.576 252.089 338.266 252.213 338.068 252.569L319.436 285.892C319.309 286.121 319.284 286.382 319.363 286.631C319.443 286.881 319.621 287.076 319.858 287.187L336.426 294.847C336.856 295.047 337.366 294.893 337.614 294.489L357.321 262.391C357.603 261.931 357.437 261.5 357.184 261.25C356.934 261.001 356.501 260.833 356.039 261.114L342.292 269.448C341.673 269.825 340.93 269.832 340.304 269.467C339.678 269.104 339.318 268.455 339.341 267.734L339.812 253.05C339.828 252.513 339.471 252.22 339.129 252.125C339.045 252.102 338.954 252.089 338.86 252.089H338.862Z" fill="#211A12"/>
<path d="M320.611 298.966L331.93 289.597C331.93 289.597 326.86 263.203 305.189 259.411C296.872 257.955 287.826 260.89 279.864 273.462C273.512 283.49 285.685 295.024 320.611 298.968V298.966Z" fill="white"/>
<path d="M320.611 299.467C320.593 299.467 320.573 299.467 320.555 299.462C297.876 296.902 282.624 290.779 278.71 282.663C277.218 279.569 277.471 276.295 279.436 273.19C286.548 261.96 295.241 257.159 305.275 258.912C327.038 262.72 332.374 289.232 332.424 289.5C332.458 289.679 332.392 289.863 332.251 289.981L320.933 299.349C320.841 299.424 320.728 299.464 320.609 299.464L320.611 299.467ZM301.347 259.57C293.319 259.57 286.252 264.316 280.29 273.728C278.493 276.565 278.268 279.427 279.618 282.229C283.367 290.003 298.243 295.909 320.452 298.442L331.37 289.405C330.732 286.547 324.966 263.382 305.098 259.906C303.825 259.683 302.572 259.57 301.342 259.57H301.347Z" fill="#211A12"/>
<path d="M320.611 298.966C320.611 298.966 316.874 275.313 295.781 270.394C274.688 265.475 263.371 292.505 320.611 298.966Z" fill="white"/>
<path d="M320.611 299.467C320.593 299.467 320.573 299.467 320.554 299.462C287.596 295.743 280.315 285.826 278.714 281.735C277.541 278.739 278.029 275.787 280.09 273.424C283.26 269.784 289.466 268.403 295.897 269.902C317.075 274.841 321.074 298.644 321.11 298.884C321.135 299.038 321.085 299.197 320.976 299.31C320.88 299.41 320.748 299.465 320.611 299.465V299.467ZM290.807 270.308C286.635 270.308 282.98 271.639 280.85 274.084C279.049 276.152 278.623 278.739 279.655 281.37C280.634 283.874 283.39 287.609 290.948 291.171C298.102 294.543 307.869 296.97 319.987 298.385C319.183 294.562 314.221 275.209 295.667 270.882C294.011 270.496 292.372 270.308 290.809 270.308H290.807Z" fill="#211A12"/>
<path d="M320.737 298.571L333.577 286.409C333.577 286.409 349.273 269.877 365.157 276.918C374.39 281.012 377.515 289.856 378.382 297.43C378.391 297.501 378.398 297.571 378.405 297.641C378.949 302.952 375.592 307.894 370.489 309.533L355.262 314.425C355.262 314.425 340.514 316.951 320.737 298.569V298.571Z" fill="white"/>
<path d="M353.178 315.062C348.35 315.062 335.968 313.416 320.393 298.938C320.29 298.843 320.233 298.712 320.233 298.573C320.233 298.435 320.29 298.301 320.391 298.206L333.23 286.044C333.372 285.894 349.339 269.351 365.365 276.458C375.053 280.753 378.063 290.201 378.885 297.371L378.908 297.591C379.468 303.068 375.993 308.293 370.644 310.012L355.417 314.903C355.394 314.91 355.371 314.917 355.349 314.919C355.219 314.942 354.469 315.06 353.178 315.06V315.062ZM321.475 298.566C340.179 315.745 354.381 314.044 355.146 313.935L370.334 309.057C375.232 307.483 378.416 302.705 377.902 297.696L377.881 297.498C377.089 290.579 374.203 281.481 364.952 277.379C349.582 270.569 334.098 286.593 333.943 286.756L321.475 298.566Z" fill="#211A12"/>
<path d="M320.737 298.571C320.737 298.571 337.139 282.676 353.481 291.89C375.631 304.379 358.514 331.531 320.737 298.571Z" fill="white"/>
<path d="M352.019 314.822C343.495 314.822 332.185 309.227 320.404 298.95C320.297 298.857 320.236 298.725 320.231 298.585C320.227 298.444 320.284 298.308 320.384 298.21C320.55 298.049 337.246 282.159 353.729 291.452C360.354 295.187 364.119 300.56 363.805 305.823C363.591 309.381 361.45 312.264 357.931 313.726C356.164 314.461 354.18 314.822 352.019 314.822ZM321.493 298.562C342.673 316.87 354.429 314.096 357.542 312.799C360.691 311.488 362.607 308.923 362.798 305.762C363.085 300.964 359.421 295.816 353.233 292.326C338.801 284.189 324.098 296.249 321.493 298.56V298.562Z" fill="#211A12"/>
<path d="M70.926 121.913C79.2088 113.665 79.2088 100.293 70.926 92.0453C62.6432 83.7975 49.2142 83.7975 40.9314 92.0453C32.6486 100.293 32.6486 113.665 40.9314 121.913C49.2142 130.161 62.6432 130.161 70.926 121.913Z" fill="white"/>
<path d="M55.9283 128.6C43.9561 128.6 34.2134 118.901 34.2134 106.977C34.2134 95.0531 43.9538 85.3539 55.9283 85.3539C67.9029 85.3539 77.6433 95.0531 77.6433 106.977C77.6433 118.901 67.9029 128.6 55.9283 128.6ZM55.9283 86.3608C44.5118 86.3608 35.2245 95.6087 35.2245 106.977C35.2245 118.345 44.5118 127.593 55.9283 127.593C67.3449 127.593 76.6321 118.345 76.6321 106.977C76.6321 95.6087 67.3449 86.3608 55.9283 86.3608Z" fill="#211A12"/>
<path d="M56.0469 117.601C55.8373 117.731 55.5732 117.737 55.3591 117.617C53.4893 116.576 44.8193 111.374 45.1586 104.571C45.5162 97.3798 53.355 98.6271 55.2908 102.165C55.3636 102.299 55.5094 102.38 55.662 102.371C55.8146 102.362 55.9512 102.269 56.0081 102.126C56.9578 99.8539 60.0232 98.2075 62.9109 99.287C66.3543 100.575 69.8547 109.081 56.0491 117.601H56.0469Z" fill="#211A12"/>
</svg>
