<svg width="292" height="233" viewBox="0 0 292 233" fill="none" xmlns="http://www.w3.org/2000/svg">
<path d="M284.087 97.3606C284.043 97.339 284 97.3101 283.966 97.2739C283.807 97.1063 283.844 96.8488 284.047 96.6972L286.918 94.5783C287.122 94.4275 287.418 94.4421 287.575 94.6088C287.734 94.7764 287.697 95.0339 287.494 95.1855L284.623 97.3044C284.463 97.4222 284.247 97.4399 284.086 97.3622L284.087 97.3606Z" fill="#211A12"/>
<path d="M277.445 102.093C277.4 102.071 277.358 102.042 277.324 102.006C277.165 101.839 277.202 101.581 277.405 101.429L280.275 99.3107C280.48 99.1599 280.775 99.172 280.933 99.3412C281.092 99.5088 281.054 99.7662 280.852 99.9179L277.981 102.037C277.821 102.155 277.605 102.172 277.444 102.095L277.445 102.093Z" fill="#211A12"/>
<path d="M280.542 97.0507C280.496 97.0285 280.452 96.9987 280.417 96.9615L278.121 94.545C277.957 94.3727 277.996 94.108 278.206 93.953C278.417 93.798 278.719 93.8121 278.882 93.9843L281.178 96.4008C281.342 96.5731 281.303 96.8378 281.093 96.9928C280.928 97.114 280.706 97.1322 280.541 97.0523L280.542 97.0507Z" fill="#211A12"/>
<path d="M286.144 102.719C286.098 102.697 286.055 102.667 286.019 102.63L283.723 100.213C283.56 100.041 283.598 99.7765 283.807 99.6206C284.017 99.4656 284.32 99.4797 284.483 99.652L286.779 102.068C286.942 102.241 286.904 102.505 286.695 102.661C286.53 102.783 286.309 102.801 286.143 102.721L286.144 102.719Z" fill="#211A12"/>
<path d="M249.746 94.88C249.18 94.6072 248.68 94.2393 248.268 93.7893C247.371 92.8058 247.001 91.5451 247.225 90.24C247.683 87.5743 250.517 85.5545 253.544 85.7403C254.999 85.8293 256.289 86.4114 257.17 87.3762C258.067 88.3597 258.437 89.6204 258.214 90.9255C257.755 93.5912 254.921 95.611 251.894 95.4251C251.119 95.3774 250.391 95.1906 249.746 94.88ZM255.187 87.0112C254.656 86.7551 254.056 86.6016 253.416 86.5622C250.903 86.4076 248.549 88.0898 248.167 90.3095C247.98 91.3935 248.287 92.4383 249.031 93.2536C249.758 94.0502 250.82 94.5289 252.022 94.6032C254.535 94.7579 256.889 93.0756 257.271 90.856C257.458 89.7719 257.151 88.7272 256.407 87.9119C256.066 87.5396 255.655 87.2365 255.187 87.0112Z" fill="#211A12"/>
<path d="M200.589 88.1123L133.988 103.167L67.5778 88.0423C67.4539 88.0147 67.4539 87.8655 67.5778 87.836L134.772 72.6232L200.589 87.9539C200.684 87.976 200.682 88.0902 200.589 88.1123Z" fill="white"/>
<path d="M133.99 103.576C133.948 103.576 133.905 103.57 133.864 103.561L67.4537 88.4365C67.1908 88.3775 67.0039 88.1731 67.0039 87.9392C67.0039 87.7054 67.1886 87.5028 67.4559 87.442L134.648 72.2291C134.731 72.2107 134.817 72.2107 134.9 72.2291L200.717 87.5599C200.969 87.6188 201.143 87.814 201.143 88.035C201.143 88.256 200.964 88.4493 200.712 88.5064L134.114 103.561C134.072 103.57 134.031 103.576 133.99 103.576ZM68.9877 87.9411L133.99 102.745L199.092 88.0295L134.77 73.0486L68.9855 87.9429L68.9877 87.9411ZM67.7014 87.6483H67.7036C67.7036 87.6483 67.7036 87.6483 67.7014 87.6483Z" fill="#211A12"/>
<path d="M133.94 183.301L134.003 103.042L201.21 87.9816L201.147 167.887L133.94 183.301Z" fill="white"/>
<path d="M161.322 177.423L161.385 97.1635L179.878 92.9482L179.815 172.854L161.322 177.423Z" fill="#211A12"/>
<path d="M133.94 183.71C133.836 183.71 133.731 183.68 133.647 183.625C133.527 183.548 133.458 183.428 133.458 183.301L133.521 103.042C133.521 102.858 133.668 102.695 133.879 102.648L201.086 87.5875C201.234 87.5544 201.386 87.582 201.504 87.6593C201.623 87.7367 201.69 87.8564 201.69 87.9835L201.627 167.889C201.627 168.073 201.482 168.235 201.271 168.283L134.064 183.697C134.022 183.706 133.979 183.712 133.938 183.712L133.94 183.71ZM134.485 103.357L134.422 182.769L200.667 167.576L200.73 88.512L134.485 103.357Z" fill="#211A12"/>
<path d="M133.94 183.301L134.003 103.042L67.4014 87.8859L67.3384 167.887L133.94 183.301Z" fill="white"/>
<path d="M88.1216 92.3627L88.0586 172.156L105.847 176.854L105.91 97.0199L88.1216 92.3627Z" fill="#211A12"/>
<path d="M132.968 183.454C132.84 183.454 132.71 183.439 132.582 183.41L67.2126 168.282C67.004 168.234 66.8584 168.072 66.8584 167.887L66.9214 88.3683C66.9214 88.1252 67.0539 87.9006 67.2821 87.7514C67.5102 87.6022 67.7992 87.5544 68.0773 87.6188L134.129 102.649C134.34 102.697 134.485 102.859 134.485 103.043L134.422 182.222C134.422 182.61 134.213 182.968 133.848 183.202C133.59 183.367 133.284 183.456 132.968 183.456V183.454ZM67.8209 167.574L132.836 182.622C132.984 182.655 133.142 182.631 133.264 182.552C133.386 182.472 133.457 182.351 133.457 182.22L133.52 103.355L67.884 88.4199L67.8209 167.576V167.574Z" fill="#211A12"/>
<path d="M88.3906 103.088L101.623 99.1945C102.868 98.8281 104.115 99.7415 103.868 100.839L101.862 109.726C101.538 111.157 103.626 112.054 104.798 110.988L126.652 91.09C127.534 90.2871 127.086 88.9777 125.837 88.6978L108.011 84.6907C107.442 84.5617 106.833 84.6907 106.403 85.0332L86.6567 100.657C85.303 101.727 86.6393 103.605 88.3884 103.089L88.3906 103.088Z" fill="white"/>
<path d="M103.561 111.866C103.222 111.866 102.879 111.798 102.551 111.656C101.656 111.271 101.199 110.483 101.388 109.649L103.394 100.762C103.479 100.392 103.327 100.023 102.99 99.7765C102.653 99.5298 102.201 99.4561 101.78 99.5795L88.5471 103.472C87.3868 103.815 86.4047 103.318 85.9485 102.675C85.49 102.032 85.4313 101.066 86.3309 100.355L106.077 84.7312C106.634 84.2911 107.403 84.129 108.137 84.2929L125.963 88.3001C126.715 88.4695 127.293 88.9483 127.508 89.5818C127.723 90.2153 127.536 90.8819 127.006 91.3644L105.152 111.262C104.717 111.656 104.15 111.862 103.563 111.862L103.561 111.866ZM102.192 98.7029C102.707 98.7029 103.211 98.8594 103.62 99.1578C104.22 99.5979 104.489 100.253 104.341 100.915L102.336 109.802C102.208 110.371 102.588 110.758 102.988 110.929C103.387 111.1 103.981 111.133 104.446 110.71L126.3 90.812C126.597 90.5413 126.704 90.1674 126.582 89.812C126.461 89.4566 126.137 89.1877 125.715 89.092L107.89 85.0848C107.475 84.9909 107.044 85.0848 106.734 85.3297L86.9871 100.953C86.4482 101.379 86.5351 101.92 86.772 102.255C87.0088 102.59 87.5346 102.905 88.2299 102.703L101.462 98.8097C101.701 98.7398 101.949 98.7048 102.19 98.7048L102.192 98.7029Z" fill="#211A12"/>
<path d="M157.102 58.7952L143.987 65.5628C143.057 66.0435 141.869 65.456 141.903 64.5334L142.353 52.6095C142.399 51.3923 140.485 50.9429 139.785 52.0073L122.009 79.0668C121.622 79.656 121.907 80.4019 122.63 80.6855L138.438 86.908C139.07 87.1566 139.822 86.9632 140.185 86.4605L158.986 60.3955C159.736 59.355 158.332 58.1636 157.102 58.797V58.7952Z" fill="white"/>
<path d="M139.011 87.4236C138.748 87.4236 138.483 87.3757 138.231 87.2763L122.424 81.0556C121.959 80.8714 121.6 80.5308 121.442 80.1164C121.283 79.7021 121.335 79.2472 121.585 78.8678L139.361 51.8084C139.785 51.1639 140.632 50.8637 141.473 51.0589C142.312 51.2559 142.859 51.8839 142.831 52.6224L142.381 64.5463C142.37 64.828 142.535 65.0803 142.822 65.2221C143.109 65.3639 143.45 65.3602 143.733 65.2147L156.848 58.4471C157.593 58.0622 158.506 58.1562 159.123 58.6792C159.738 59.2021 159.846 59.9774 159.392 60.6072L140.591 86.6723C140.243 87.1529 139.637 87.4236 139.009 87.4236H139.011ZM140.96 51.8158C140.686 51.8158 140.391 51.9171 140.202 52.2062L122.426 79.2656C122.304 79.4516 122.28 79.6634 122.357 79.8659C122.433 80.0685 122.602 80.2269 122.828 80.3171L138.635 86.5378C139.046 86.6999 139.533 86.5746 139.769 86.2468L158.571 60.1818C158.84 59.808 158.682 59.4581 158.44 59.2556C158.201 59.053 157.789 58.9167 157.348 59.1451L144.232 65.9127C143.641 66.2184 142.933 66.2239 142.336 65.9274C141.738 65.6328 141.395 65.1061 141.416 64.5205L141.866 52.5966C141.881 52.1601 141.54 51.9226 141.214 51.8452C141.134 51.8268 141.047 51.8158 140.958 51.8158H140.96Z" fill="#211A12"/>
<path d="M123.547 89.8821L134.346 82.2747C134.346 82.2747 129.509 60.8412 108.833 57.7621C100.898 56.5799 92.2671 58.9628 84.671 69.1723C78.611 77.3155 90.2247 86.6815 123.547 89.8839V89.8821Z" fill="white"/>
<path d="M123.547 90.2891C123.53 90.2891 123.51 90.2891 123.493 90.2854C101.856 88.2063 87.3045 83.2341 83.5694 76.6433C82.1462 74.1315 82.3874 71.4723 84.2625 68.9513C91.0482 59.832 99.3419 55.9335 108.915 57.357C129.679 60.4489 134.77 81.9782 134.817 82.1955C134.85 82.341 134.787 82.4902 134.652 82.5859L123.853 90.1933C123.766 90.2541 123.658 90.2872 123.545 90.2872L123.547 90.2891ZM105.167 57.891C97.508 57.891 90.7658 61.7454 85.0773 69.3877C83.363 71.6915 83.1479 74.0155 84.4364 76.2916C88.0128 82.6044 102.206 87.3997 123.395 89.4567L133.811 82.1182C133.203 79.7979 127.701 60.9866 108.746 58.1636C107.531 57.9831 106.336 57.891 105.163 57.891H105.167Z" fill="#211A12"/>
<path d="M123.547 89.8821C123.547 89.8821 119.981 70.675 99.8566 66.6807C79.732 62.6864 68.9353 84.6356 123.547 89.8821Z" fill="white"/>
<path d="M123.547 90.2891C123.53 90.2891 123.51 90.2891 123.493 90.2854C92.0476 87.2653 85.1011 79.2123 83.5736 75.8902C82.4546 73.4575 82.9196 71.0598 84.886 69.141C87.9106 66.1853 93.8315 65.0638 99.9675 66.2811C120.173 70.2919 123.988 89.6206 124.023 89.8158C124.047 89.941 123.999 90.07 123.895 90.162C123.803 90.2431 123.677 90.2873 123.547 90.2873V90.2891ZM95.1113 66.6107C91.1307 66.6107 87.6433 67.6917 85.6117 69.6769C83.893 71.3563 83.4867 73.4575 84.471 75.5937C85.4053 77.6267 88.0344 80.6597 95.246 83.5528C102.071 86.2911 111.39 88.2616 122.952 89.4107C122.185 86.3059 117.45 70.5903 99.7481 67.0766C98.1684 66.7636 96.604 66.6107 95.1134 66.6107H95.1113Z" fill="#211A12"/>
<path d="M123.667 89.5616L135.917 79.6855C135.917 79.6855 150.892 66.2607 166.047 71.9787C174.856 75.3026 177.837 82.4846 178.665 88.6353C178.673 88.6924 178.68 88.7495 178.687 88.8066C179.206 93.1194 176.003 97.1321 171.134 98.4636L156.606 102.436C156.606 102.436 142.535 104.487 123.667 89.5597V89.5616Z" fill="white"/>
<path d="M154.618 102.953C150.012 102.953 138.198 101.616 123.339 89.8599C123.241 89.7825 123.187 89.6757 123.187 89.5634C123.187 89.4511 123.241 89.3424 123.336 89.2651L135.587 79.3889C135.721 79.2674 150.955 65.8334 166.245 71.6048C175.488 75.0926 178.361 82.7645 179.145 88.5874L179.167 88.766C179.701 93.2133 176.386 97.4562 171.282 98.8521L156.754 102.824C156.733 102.83 156.711 102.835 156.689 102.837C156.565 102.856 155.85 102.951 154.618 102.951V102.953ZM124.371 89.5579C142.216 103.507 155.766 102.126 156.496 102.038L170.986 98.0768C175.66 96.7988 178.698 92.9187 178.207 88.8507L178.187 88.6905C177.431 83.072 174.678 75.6838 165.852 72.3525C151.188 66.8223 136.415 79.8346 136.267 79.9672L124.371 89.5579Z" fill="#211A12"/>
<path d="M123.667 89.5616C123.667 89.5616 139.315 76.6543 154.907 84.1364C176.04 94.2777 159.709 116.326 123.667 89.5616Z" fill="white"/>
<path d="M153.512 102.758C145.38 102.758 134.589 98.2149 123.349 89.8691C123.247 89.7936 123.189 89.6868 123.184 89.5726C123.18 89.4584 123.234 89.3479 123.33 89.2687C123.489 89.138 139.417 76.2344 155.144 83.781C161.465 86.814 165.057 91.1766 164.757 95.4507C164.553 98.3401 162.51 100.681 159.153 101.868C157.467 102.465 155.574 102.758 153.512 102.758ZM124.388 89.5542C144.595 104.421 155.811 102.169 158.782 101.115C161.787 100.051 163.614 97.9681 163.796 95.401C164.07 91.5044 160.574 87.3241 154.671 84.49C140.901 77.8826 126.874 87.6758 124.388 89.5523V89.5542Z" fill="#211A12"/>
<path d="M133.73 137.112L67.1293 152.167L0.719353 137.042C0.595502 137.015 0.595502 136.866 0.719353 136.836L67.9137 121.623L133.73 136.954C133.826 136.976 133.824 137.09 133.73 137.112Z" fill="white"/>
<path d="M67.1312 152.576C67.09 152.576 67.0465 152.57 67.0052 152.561L0.595295 137.436C0.332385 137.378 0.145508 137.173 0.145508 136.939C0.145508 136.705 0.330214 136.503 0.59747 136.442L67.7896 121.229C67.8722 121.211 67.9591 121.211 68.0417 121.229L133.858 136.56C134.11 136.619 134.284 136.814 134.284 137.035C134.284 137.256 134.106 137.449 133.854 137.506L67.2551 152.561C67.2138 152.57 67.1725 152.576 67.1312 152.576ZM2.12929 136.941L67.1312 151.745L132.233 137.029L67.9113 122.049L2.12711 136.943L2.12929 136.941ZM0.843 136.648H0.845174C0.845174 136.648 0.845172 136.648 0.843 136.648Z" fill="#211A12"/>
<path d="M67.0815 232.301L67.1446 152.042L134.352 136.982L134.289 216.887L67.0815 232.301Z" fill="white"/>
<path d="M94.4634 226.423L94.5264 146.164L113.019 141.948L112.956 221.854L94.4634 226.423Z" fill="#211A12"/>
<path d="M67.0815 232.71C66.9772 232.71 66.8729 232.68 66.7882 232.625C66.6687 232.548 66.5991 232.428 66.5991 232.301L66.6621 152.042C66.6621 151.858 66.8099 151.695 67.0206 151.648L134.228 136.588C134.376 136.554 134.528 136.582 134.645 136.659C134.765 136.737 134.832 136.856 134.832 136.983L134.769 216.889C134.769 217.073 134.623 217.235 134.413 217.283L67.2053 232.697C67.164 232.706 67.1206 232.712 67.0793 232.712L67.0815 232.71ZM67.6269 152.357L67.5638 231.769L133.809 216.576L133.872 137.512L67.6269 152.357Z" fill="#211A12"/>
<path d="M67.0811 232.301L67.1441 152.042L0.543001 136.886L0.47998 216.887L67.0811 232.301Z" fill="white"/>
<path d="M21.2632 141.363L21.2002 221.156L38.989 225.854L39.0521 146.02L21.2632 141.363Z" fill="#211A12"/>
<path d="M66.1101 232.454C65.9819 232.454 65.8515 232.439 65.7233 232.41L0.35417 217.282C0.14558 217.234 0 217.072 0 216.887L0.0629936 137.368C0.0629936 137.125 0.195543 136.901 0.423688 136.751C0.651834 136.602 0.940826 136.554 1.21895 136.619L67.2703 151.649C67.4811 151.697 67.6267 151.859 67.6267 152.043L67.5637 231.222C67.5637 231.61 67.3551 231.968 66.99 232.202C66.7315 232.367 66.4251 232.456 66.1101 232.456V232.454ZM0.962542 216.574L65.9775 231.622C66.1253 231.655 66.2839 231.631 66.4056 231.552C66.5273 231.472 66.599 231.351 66.599 231.22L66.6619 152.355L1.02556 137.42L0.962542 216.576V216.574Z" fill="#211A12"/>
<path d="M21.5322 152.088L34.7646 148.195C36.0097 147.828 37.2568 148.741 37.0091 149.839L35.0036 158.726C34.6799 160.157 36.768 161.054 37.9391 159.988L59.7933 140.09C60.6754 139.287 60.2278 137.978 58.9785 137.698L41.1527 133.691C40.5834 133.562 39.975 133.691 39.5448 134.033L19.7983 149.657C18.4446 150.727 19.7809 152.605 21.53 152.089L21.5322 152.088Z" fill="white"/>
<path d="M36.7029 160.866C36.3639 160.866 36.0206 160.798 35.6925 160.656C34.7973 160.271 34.341 159.483 34.5301 158.649L36.5356 149.762C36.6203 149.392 36.4682 149.023 36.1314 148.777C35.7946 148.53 35.3427 148.456 34.9212 148.579L21.6887 152.472C20.5284 152.815 19.5463 152.318 19.0901 151.675C18.6316 151.032 18.5729 150.066 19.4725 149.355L39.219 133.731C39.7753 133.291 40.5444 133.129 41.2788 133.293L59.1046 137.3C59.8564 137.47 60.4344 137.948 60.6495 138.582C60.8646 139.215 60.6777 139.882 60.1476 140.364L38.2934 160.262C37.8588 160.656 37.2917 160.862 36.7051 160.862L36.7029 160.866ZM35.334 147.703C35.849 147.703 36.3531 147.859 36.7615 148.158C37.3612 148.598 37.6307 149.253 37.4829 149.915L35.4774 158.802C35.3492 159.371 35.7295 159.758 36.1293 159.929C36.5291 160.1 37.1222 160.133 37.5872 159.71L59.4414 139.812C59.7391 139.541 59.8455 139.167 59.7239 138.812C59.6022 138.457 59.2784 138.188 58.8569 138.092L41.0311 134.085C40.6161 133.991 40.1859 134.085 39.8752 134.33L20.1287 149.953C19.5898 150.379 19.6767 150.92 19.9136 151.255C20.1504 151.59 20.6762 151.905 21.3715 151.703L34.604 147.81C34.843 147.74 35.0907 147.705 35.3318 147.705L35.334 147.703Z" fill="#211A12"/>
<path d="M90.2438 107.795L77.1287 114.563C76.1987 115.043 75.0102 114.456 75.045 113.533L75.4947 101.61C75.5404 100.392 73.6261 99.9429 72.9265 101.007L55.1507 128.067C54.7639 128.656 55.0485 129.402 55.7721 129.685L71.5793 135.908C72.2116 136.157 72.9634 135.963 73.3263 135.461L92.1276 109.395C92.8773 108.355 91.4736 107.164 90.2438 107.797V107.795Z" fill="white"/>
<path d="M72.1528 136.424C71.8899 136.424 71.6248 136.376 71.3727 136.276L55.5655 130.056C55.1005 129.871 54.742 129.531 54.5834 129.116C54.4248 128.702 54.4769 128.247 54.7268 127.868L72.5026 100.808C72.9263 100.164 73.7737 99.8637 74.6146 100.059C75.4533 100.256 76.0008 100.884 75.9726 101.622L75.5228 113.546C75.512 113.828 75.6771 114.08 75.9639 114.222C76.2507 114.364 76.5918 114.36 76.8743 114.215L89.9894 107.447C90.7347 107.062 91.6473 107.156 92.2644 107.679C92.8793 108.202 92.9879 108.977 92.5338 109.607L73.7324 135.672C73.3848 136.153 72.7785 136.424 72.1506 136.424H72.1528ZM74.1018 100.816C73.828 100.816 73.5325 100.917 73.3435 101.206L55.5677 128.266C55.446 128.452 55.4221 128.663 55.4981 128.866C55.5742 129.069 55.7437 129.227 55.9697 129.317L71.7769 135.538C72.1875 135.7 72.6742 135.575 72.9111 135.247L91.7125 109.182C91.9819 108.808 91.8233 108.458 91.5821 108.256C91.3431 108.053 90.9302 107.917 90.4892 108.145L77.3741 114.913C76.7831 115.218 76.0747 115.224 75.4772 114.927C74.8797 114.633 74.5364 114.106 74.5581 113.52L75.0079 101.597C75.0231 101.16 74.6819 100.923 74.356 100.845C74.2756 100.827 74.1887 100.816 74.0996 100.816H74.1018Z" fill="#211A12"/>
<path d="M56.6886 138.882L67.4875 131.275C67.4875 131.275 62.6508 109.841 41.9743 106.762C34.0391 105.58 25.4087 107.963 17.8126 118.172C11.7526 126.316 23.3663 135.682 56.6886 138.884V138.882Z" fill="white"/>
<path d="M56.6886 139.289C56.6713 139.289 56.6517 139.289 56.6343 139.285C34.9974 137.206 20.4461 132.234 16.711 125.643C15.2878 123.131 15.529 120.472 17.4041 117.951C24.1898 108.832 32.4835 104.933 42.0569 106.357C62.8203 109.449 67.9112 130.978 67.959 131.196C67.9916 131.341 67.9286 131.49 67.7939 131.586L56.995 139.193C56.9081 139.254 56.7994 139.287 56.6865 139.287L56.6886 139.289ZM38.3088 106.891C30.6496 106.891 23.9074 110.745 18.2189 118.388C16.5046 120.691 16.2895 123.015 17.578 125.292C21.1544 131.604 35.3472 136.4 56.5365 138.457L66.953 131.118C66.3446 128.798 60.8431 109.987 41.8874 107.164C40.6728 106.983 39.4777 106.891 38.3044 106.891H38.3088Z" fill="#211A12"/>
<path d="M56.6884 138.882C56.6884 138.882 53.1228 119.675 32.9982 115.681C12.8736 111.686 2.0769 133.636 56.6884 138.882Z" fill="white"/>
<path d="M56.6885 139.289C56.6711 139.289 56.6516 139.289 56.6342 139.285C25.1892 136.265 18.2427 128.212 16.7152 124.89C15.5962 122.458 16.0612 120.06 18.0276 118.141C21.0522 115.185 26.9731 114.064 33.1091 115.281C53.3141 119.292 57.1296 138.621 57.1644 138.816C57.1883 138.941 57.1405 139.07 57.0362 139.162C56.9449 139.243 56.8189 139.287 56.6885 139.287V139.289ZM28.2529 115.611C24.2723 115.611 20.7849 116.692 18.7533 118.677C17.0346 120.356 16.6283 122.458 17.6126 124.594C18.5469 126.627 21.176 129.66 28.3876 132.553C35.2124 135.291 44.5316 137.262 56.0932 138.411C55.3262 135.306 50.5916 119.59 32.8897 116.077C31.31 115.764 29.7456 115.611 28.255 115.611H28.2529Z" fill="#211A12"/>
<path d="M56.8081 138.562L69.0584 128.685C69.0584 128.685 84.0335 115.261 99.1889 120.979C107.997 124.303 110.979 131.485 111.806 137.635C111.815 137.692 111.822 137.749 111.828 137.807C112.347 142.119 109.145 146.132 104.275 147.464L89.748 151.436C89.748 151.436 75.6768 153.487 56.8081 138.56V138.562Z" fill="white"/>
<path d="M87.7601 151.953C83.1537 151.953 71.3401 150.616 56.4802 138.86C56.3824 138.783 56.3281 138.676 56.3281 138.563C56.3281 138.451 56.3824 138.342 56.478 138.265L68.7284 128.389C68.8631 128.267 84.0967 114.833 99.3868 120.605C108.63 124.093 111.502 131.764 112.287 137.587L112.309 137.766C112.843 142.213 109.527 146.456 104.423 147.852L89.8959 151.824C89.8742 151.83 89.8525 151.835 89.8307 151.837C89.7069 151.856 88.9921 151.951 87.7601 151.951V151.953ZM57.5123 138.558C75.3576 152.507 88.9073 151.126 89.6374 151.038L104.128 147.077C108.802 145.799 111.839 141.919 111.348 137.851L111.329 137.691C110.572 132.072 107.819 124.684 98.9935 121.352C84.3292 115.822 69.5562 128.835 69.4085 128.967L57.5123 138.558Z" fill="#211A12"/>
<path d="M56.8081 138.562C56.8081 138.562 72.4567 125.654 88.0488 133.136C109.182 143.278 92.8508 165.326 56.8081 138.562Z" fill="white"/>
<path d="M86.6541 151.758C78.5212 151.758 67.731 147.215 56.4911 138.869C56.3889 138.794 56.3303 138.687 56.3259 138.573C56.3216 138.458 56.3759 138.348 56.4715 138.269C56.6301 138.138 72.559 125.234 88.2859 132.781C94.6066 135.814 98.1982 140.177 97.8984 144.451C97.6941 147.34 95.6517 149.681 92.2947 150.868C90.6086 151.465 88.7161 151.758 86.6541 151.758ZM57.5297 138.554C77.7369 153.421 88.9529 151.169 91.9231 150.115C94.9282 149.051 96.7555 146.968 96.938 144.401C97.2118 140.504 93.7157 136.324 87.8122 133.49C74.0431 126.883 60.0154 136.676 57.5297 138.552V138.554Z" fill="#211A12"/>
<path d="M267.447 137.112L200.846 152.167L134.436 137.042C134.312 137.015 134.312 136.866 134.436 136.836L201.63 121.623L267.447 136.954C267.543 136.976 267.541 137.09 267.447 137.112Z" fill="white"/>
<path d="M200.848 152.576C200.807 152.576 200.763 152.57 200.722 152.561L134.312 137.436C134.049 137.378 133.862 137.173 133.862 136.939C133.862 136.705 134.047 136.503 134.314 136.442L201.506 121.229C201.589 121.211 201.676 121.211 201.758 121.229L267.575 136.56C267.827 136.619 268.001 136.814 268.001 137.035C268.001 137.256 267.823 137.449 267.571 137.506L200.972 152.561C200.931 152.57 200.889 152.576 200.848 152.576ZM135.846 136.941L200.848 151.745L265.95 137.029L201.628 122.049L135.844 136.943L135.846 136.941ZM134.56 136.648H134.562C134.562 136.648 134.562 136.648 134.56 136.648Z" fill="#211A12"/>
<path d="M200.798 232.301L200.861 152.042L268.069 136.982L268.006 216.887L200.798 232.301Z" fill="white"/>
<path d="M228.18 226.423L228.243 146.164L246.736 141.948L246.673 221.854L228.18 226.423Z" fill="#211A12"/>
<path d="M200.798 232.71C200.694 232.71 200.59 232.68 200.505 232.625C200.385 232.548 200.316 232.428 200.316 232.301L200.379 152.042C200.379 151.858 200.527 151.695 200.737 151.648L267.945 136.588C268.093 136.554 268.245 136.582 268.362 136.659C268.481 136.737 268.549 136.856 268.549 136.983L268.486 216.889C268.486 217.073 268.34 217.235 268.129 217.283L200.922 232.697C200.881 232.706 200.837 232.712 200.796 232.712L200.798 232.71ZM201.344 152.357L201.281 231.769L267.525 216.576L267.588 137.512L201.344 152.357Z" fill="#211A12"/>
<path d="M200.798 232.301L200.861 152.042L134.26 136.886L134.197 216.887L200.798 232.301Z" fill="white"/>
<path d="M154.98 141.363L154.917 221.156L172.706 225.854L172.769 146.02L154.98 141.363Z" fill="#211A12"/>
<path d="M199.827 232.454C199.699 232.454 199.568 232.439 199.44 232.41L134.071 217.282C133.862 217.234 133.717 217.072 133.717 216.887L133.78 137.368C133.78 137.125 133.912 136.901 134.14 136.751C134.369 136.602 134.658 136.554 134.936 136.619L200.987 151.649C201.198 151.697 201.343 151.859 201.343 152.043L201.28 231.222C201.28 231.61 201.072 231.968 200.707 232.202C200.448 232.367 200.142 232.456 199.827 232.456V232.454ZM134.679 216.574L199.694 231.622C199.842 231.655 200.001 231.631 200.122 231.552C200.244 231.472 200.316 231.351 200.316 231.22L200.379 152.355L134.742 137.42L134.679 216.576V216.574Z" fill="#211A12"/>
<path d="M155.249 152.088L168.481 148.195C169.726 147.828 170.974 148.741 170.726 149.839L168.72 158.726C168.397 160.157 170.485 161.054 171.656 159.988L193.51 140.09C194.392 139.287 193.945 137.978 192.695 137.698L174.87 133.691C174.3 133.562 173.692 133.691 173.262 134.033L153.515 149.657C152.161 150.727 153.498 152.605 155.247 152.089L155.249 152.088Z" fill="white"/>
<path d="M170.42 160.866C170.081 160.866 169.737 160.798 169.409 160.656C168.514 160.271 168.058 159.483 168.247 158.649L170.252 149.762C170.337 149.392 170.185 149.023 169.848 148.777C169.511 148.53 169.06 148.456 168.638 148.579L155.406 152.472C154.245 152.815 153.263 152.318 152.807 151.675C152.348 151.032 152.29 150.066 153.189 149.355L172.936 133.731C173.492 133.291 174.261 133.129 174.996 133.293L192.821 137.3C193.573 137.47 194.151 137.948 194.366 138.582C194.581 139.215 194.395 139.882 193.864 140.364L172.01 160.262C171.576 160.656 171.009 160.862 170.422 160.862L170.42 160.866ZM169.051 147.703C169.566 147.703 170.07 147.859 170.478 148.158C171.078 148.598 171.347 149.253 171.2 149.915L169.194 158.802C169.066 159.371 169.446 159.758 169.846 159.929C170.246 160.1 170.839 160.133 171.304 159.71L193.158 139.812C193.456 139.541 193.562 139.167 193.441 138.812C193.319 138.457 192.995 138.188 192.574 138.092L174.748 134.085C174.333 133.991 173.903 134.085 173.592 134.33L153.845 149.953C153.307 150.379 153.394 150.92 153.63 151.255C153.867 151.59 154.393 151.905 155.088 151.703L168.321 147.81C168.56 147.74 168.807 147.705 169.049 147.705L169.051 147.703Z" fill="#211A12"/>
<path d="M223.961 107.795L210.845 114.563C209.916 115.043 208.727 114.456 208.762 113.533L209.212 101.61C209.257 100.392 207.343 99.9429 206.643 101.007L188.867 128.067C188.481 128.656 188.765 129.402 189.489 129.685L205.296 135.908C205.928 136.157 206.68 135.963 207.043 135.461L225.844 109.395C226.594 108.355 225.19 107.164 223.961 107.797V107.795Z" fill="white"/>
<path d="M205.87 136.424C205.607 136.424 205.342 136.376 205.09 136.276L189.282 130.056C188.817 129.871 188.459 129.531 188.3 129.116C188.142 128.702 188.194 128.247 188.444 127.868L206.219 100.808C206.643 100.164 207.491 99.8637 208.331 100.059C209.17 100.256 209.718 100.884 209.689 101.622L209.24 113.546C209.229 113.828 209.394 114.08 209.681 114.222C209.968 114.364 210.309 114.36 210.591 114.215L223.706 107.447C224.452 107.062 225.364 107.156 225.981 107.679C226.596 108.202 226.705 108.977 226.251 109.607L207.449 135.672C207.102 136.153 206.495 136.424 205.867 136.424H205.87ZM207.819 100.816C207.545 100.816 207.249 100.917 207.06 101.206L189.284 128.266C189.163 128.452 189.139 128.663 189.215 128.866C189.291 129.069 189.46 129.227 189.686 129.317L205.494 135.538C205.904 135.7 206.391 135.575 206.628 135.247L225.429 109.182C225.699 108.808 225.54 108.458 225.299 108.256C225.06 108.053 224.647 107.917 224.206 108.145L211.091 114.913C210.5 115.218 209.792 115.224 209.194 114.927C208.596 114.633 208.253 114.106 208.275 113.52L208.725 101.597C208.74 101.16 208.399 100.923 208.073 100.845C207.992 100.827 207.906 100.816 207.816 100.816H207.819Z" fill="#211A12"/>
<path d="M190.405 138.882L201.204 131.275C201.204 131.275 196.368 109.841 175.691 106.762C167.756 105.58 159.126 107.963 151.529 118.172C145.469 126.316 157.083 135.682 190.405 138.884V138.882Z" fill="white"/>
<path d="M190.405 139.289C190.388 139.289 190.368 139.289 190.351 139.285C168.714 137.206 154.163 132.234 150.428 125.643C149.005 123.131 149.246 120.472 151.121 117.951C157.907 108.832 166.2 104.933 175.774 106.357C196.537 109.449 201.628 130.978 201.676 131.196C201.708 131.341 201.645 131.49 201.511 131.586L190.712 139.193C190.625 139.254 190.516 139.287 190.403 139.287L190.405 139.289ZM172.026 106.891C164.366 106.891 157.624 110.745 151.936 118.388C150.221 120.691 150.006 123.015 151.295 125.292C154.871 131.604 169.064 136.4 190.253 138.457L200.67 131.118C200.061 128.798 194.56 109.987 175.604 107.164C174.39 106.983 173.195 106.891 172.021 106.891H172.026Z" fill="#211A12"/>
<path d="M190.405 138.882C190.405 138.882 186.84 119.675 166.715 115.681C146.59 111.686 135.794 133.636 190.405 138.882Z" fill="white"/>
<path d="M190.405 139.289C190.388 139.289 190.368 139.289 190.351 139.285C158.906 136.265 151.96 128.212 150.432 124.89C149.313 122.458 149.778 120.06 151.744 118.141C154.769 115.185 160.69 114.064 166.826 115.281C187.031 119.292 190.846 138.621 190.881 138.816C190.905 138.941 190.857 139.07 190.753 139.162C190.662 139.243 190.536 139.287 190.405 139.287V139.289ZM161.97 115.611C157.989 115.611 154.502 116.692 152.47 118.677C150.751 120.356 150.345 122.458 151.329 124.594C152.264 126.627 154.893 129.66 162.104 132.553C168.929 135.291 178.248 137.262 189.81 138.411C189.043 135.306 184.308 119.59 166.606 116.077C165.027 115.764 163.462 115.611 161.972 115.611H161.97Z" fill="#211A12"/>
<path d="M190.525 138.562L202.775 128.685C202.775 128.685 217.75 115.261 232.906 120.979C241.714 124.303 244.695 131.485 245.523 137.635C245.532 137.692 245.538 137.749 245.545 137.807C246.064 142.119 242.862 146.132 237.992 147.464L223.465 151.436C223.465 151.436 209.394 153.487 190.525 138.56V138.562Z" fill="white"/>
<path d="M221.477 151.953C216.871 151.953 205.057 150.616 190.197 138.86C190.099 138.783 190.045 138.676 190.045 138.563C190.045 138.451 190.099 138.342 190.195 138.265L202.445 128.389C202.58 128.267 217.814 114.833 233.104 120.605C242.347 124.093 245.219 131.764 246.004 137.587L246.025 137.766C246.56 142.213 243.244 146.456 238.14 147.852L223.613 151.824C223.591 151.83 223.569 151.835 223.548 151.837C223.424 151.856 222.709 151.951 221.477 151.951V151.953ZM191.229 138.558C209.074 152.507 222.624 151.126 223.354 151.038L237.845 147.077C242.518 145.799 245.556 141.919 245.065 137.851L245.045 137.691C244.289 132.072 241.536 124.684 232.71 121.352C218.046 115.822 203.273 128.835 203.125 128.967L191.229 138.558Z" fill="#211A12"/>
<path d="M190.525 138.562C190.525 138.562 206.174 125.654 221.766 133.136C242.898 143.278 226.568 165.326 190.525 138.562Z" fill="white"/>
<path d="M220.371 151.758C212.238 151.758 201.448 147.215 190.208 138.869C190.106 138.794 190.047 138.687 190.043 138.573C190.038 138.458 190.093 138.348 190.188 138.269C190.347 138.138 206.276 125.234 222.003 132.781C228.323 135.814 231.915 140.177 231.615 144.451C231.411 147.34 229.369 149.681 226.012 150.868C224.325 151.465 222.433 151.758 220.371 151.758ZM191.246 138.554C211.454 153.421 222.67 151.169 225.64 150.115C228.645 149.051 230.472 146.968 230.655 144.401C230.929 140.504 227.433 136.324 221.529 133.49C207.76 126.883 193.732 136.676 191.246 138.552V138.554Z" fill="#211A12"/>
<path d="M265.58 155.299C270.354 147.086 267.543 136.597 259.302 131.871C251.061 127.146 240.51 129.973 235.736 138.186C230.962 146.399 233.773 156.888 242.014 161.613C250.255 166.339 260.806 163.512 265.58 155.299Z" fill="white"/>
<path d="M255.202 163.701C245.796 166.222 236.102 160.665 233.596 151.312C231.09 141.959 236.705 132.301 246.113 129.78C255.521 127.259 265.212 132.816 267.718 142.169C270.225 151.522 264.61 161.18 255.202 163.701ZM246.324 130.57C237.355 132.973 232.002 142.182 234.391 151.099C236.78 160.016 246.021 165.315 254.99 162.912C263.96 160.508 269.313 151.299 266.924 142.382C264.535 133.465 255.294 128.166 246.324 130.57Z" fill="black"/>
<path d="M252.983 155.049C252.846 155.195 252.64 155.256 252.446 155.206C250.758 154.784 242.853 152.528 241.69 147.121C240.459 141.405 246.88 140.733 249.145 143.1C249.23 143.19 249.362 143.223 249.48 143.184C249.598 143.145 249.686 143.043 249.7 142.919C249.969 140.937 252.031 139 254.527 139.239C257.503 139.524 262.041 145.459 252.985 155.049L252.983 155.049Z" fill="black"/>
<path d="M146.666 2.27938C147.17 2.00456 147.726 1.82352 148.31 1.74618C149.586 1.57919 150.852 1.92745 151.875 2.72467C153.966 4.35373 154.369 7.3807 152.774 9.4707C152.007 10.4757 150.892 11.121 149.64 11.2854C148.364 11.4524 147.098 11.1041 146.075 10.3069C143.985 8.67787 143.582 5.65089 145.177 3.5609C145.586 3.02565 146.092 2.59232 146.666 2.27938ZM152.125 8.97702C153.449 7.24214 153.109 4.72599 151.37 3.36917C150.519 2.70654 149.472 2.4177 148.414 2.55582C147.38 2.69138 146.463 3.22273 145.829 4.0528C144.505 5.78768 144.844 8.30383 146.584 9.66065C147.434 10.3233 148.482 10.6121 149.54 10.474C150.574 10.3384 151.491 9.80709 152.125 8.97702Z" fill="black"/>
<path d="M132.174 31.1492C132.263 31.1005 132.37 31.084 132.476 31.1122C132.694 31.1717 132.823 31.3954 132.764 31.6121L132.188 33.7107C132.127 33.9283 131.902 34.0573 131.685 33.9995C131.467 33.94 131.339 33.7163 131.398 33.4996L131.973 31.401C132.004 31.2901 132.079 31.2006 132.174 31.1492Z" fill="black"/>
<path d="M134.189 23.803C134.278 23.7542 134.385 23.7378 134.492 23.7676C134.71 23.827 134.838 24.0507 134.779 24.2675L134.204 26.366C134.143 26.5837 133.919 26.7143 133.701 26.6548C133.483 26.5954 133.354 26.3717 133.414 26.1549L133.989 24.0564C134.021 23.9446 134.095 23.856 134.19 23.8046L134.189 23.803Z" fill="black"/>
<path d="M135.473 29.2564C135.564 29.2068 135.674 29.1911 135.782 29.2225L137.847 29.8063C138.064 29.8682 138.189 30.0937 138.126 30.3106C138.063 30.5275 137.836 30.6533 137.62 30.5929L135.555 30.0092C135.337 29.9472 135.212 29.7218 135.275 29.5048C135.307 29.3956 135.382 29.3086 135.474 29.258L135.473 29.2564Z" fill="black"/>
<path d="M128.248 27.2131C128.339 27.1634 128.448 27.1478 128.556 27.1792L130.621 27.7629C130.839 27.8249 130.964 28.0504 130.9 28.2673C130.837 28.4842 130.61 28.6099 130.394 28.5496L128.329 27.9658C128.112 27.9039 127.987 27.6784 128.05 27.4615C128.081 27.3522 128.156 27.2652 128.249 27.2147L128.248 27.2131Z" fill="black"/>
</svg>
