<svg width="195" height="27" viewBox="0 0 195 27" fill="none" xmlns="http://www.w3.org/2000/svg">
<g clip-path="url(#clip0_310_2076)">
<path d="M15.6343 15.5119L22.1747 15.7806V19.4096C20.0694 21.3802 17.6502 22.3217 13.6633 22.3217C8.24265 22.3217 4.52439 18.8273 4.52439 13.4963C4.52439 8.1552 8.00865 4.77773 13.4254 4.68023V0.512695C5.81295 0.668305 0 5.5621 0 13.4963C0 21.5148 5.91318 26.4874 13.7978 26.4874C17.8745 26.4874 20.562 25.4574 22.9811 23.5756L23.6531 25.8603H26.5648V11.794H15.6343V15.5119ZM53.6218 1.08756V5.20915H36.0169V11.1668H51.8751V15.2431H36.0169V21.6946H54.2938V25.8603H31.4473V1.08756H53.6218ZM83.277 1.08756V5.20915H72.7498V25.8603H68.1805V5.20915H57.6525V1.08756H83.277ZM91.5645 1.08756V21.7387H109.394V25.8603H86.9948V1.08756H91.5645ZM116.919 1.08756V13.7647C116.919 19.0516 119.383 22.4555 124.938 22.4555C130.492 22.4555 133.002 19.0516 133.002 13.7647V1.08756H137.527V13.7209C137.527 21.9184 132.643 26.4874 124.938 26.4874C117.232 26.4874 112.35 21.9184 112.35 13.7209V1.08756H116.919ZM146.843 1.08756L153.697 11.0775H155.803L162.657 1.08756H167.854L159.521 12.8248L168.526 25.8603H163.24L155.938 15.1987H153.563L146.216 25.8603H140.93L150.025 12.9593L141.646 1.08756H146.843ZM194.329 1.08756V5.20915H176.723V11.1668H192.58V15.2431H176.723V21.6946H195V25.8603H172.154V1.08756H194.329Z" fill="#211A12"/>
</g>
<defs>
<clipPath id="clip0_310_2076">
<rect width="195" height="27" fill="white"/>
</clipPath>
</defs>
</svg>
